<svg width="21" height="20" viewBox="0 0 21 20" fill="none" xmlns="http://www.w3.org/2000/svg">
<path d="M9.92078 13.8591C9.87245 13.8121 9.66578 13.6343 9.49578 13.4687C8.42661 12.4977 6.67661 9.96485 6.14245 8.63915C6.05661 8.43781 5.87495 7.9288 5.86328 7.65684C5.86328 7.39625 5.92328 7.14783 6.04495 6.91078C6.21495 6.61528 6.48245 6.37823 6.79828 6.24834C7.01745 6.16472 7.67328 6.03483 7.68495 6.03483C8.40245 5.90494 9.56828 5.8335 10.8566 5.8335C12.0841 5.8335 13.2024 5.90494 13.9308 6.01128C13.9424 6.02346 14.7574 6.15335 15.0366 6.29542C15.5466 6.55602 15.8633 7.06503 15.8633 7.60976V7.65684C15.8508 8.01161 15.5341 8.75767 15.5224 8.75767C14.9874 10.0119 13.3233 12.4864 12.2174 13.4808C12.2174 13.4808 11.9333 13.7609 11.7558 13.8827C11.5008 14.0727 11.1849 14.1668 10.8691 14.1668C10.5166 14.1668 10.1883 14.0605 9.92078 13.8591Z" fill="#373742"/>
</svg>
