<svg width="21" height="21" viewBox="0 0 21 21" fill="none" xmlns="http://www.w3.org/2000/svg">
<path fill-rule="evenodd" clip-rule="evenodd" d="M14.584 0.51123C18.122 0.51123 20.5 2.78723 20.5 6.17623V14.8452C20.5 18.2342 18.122 20.5112 14.584 20.5112H6.416C2.878 20.5112 0.5 18.2342 0.5 14.8452V6.17623C0.5 2.78723 2.878 0.51123 6.416 0.51123H14.584ZM14.584 2.01123H6.416C3.733 2.01123 2 3.64623 2 6.17623V14.8452C2 17.3752 3.733 19.0112 6.416 19.0112H14.584C17.267 19.0112 19 17.3752 19 14.8452V6.17623C19 3.64623 17.267 2.01123 14.584 2.01123ZM11.3513 6.23223L15.1086 9.97349C15.1366 10.0008 15.1626 10.0303 15.1861 10.0616L15.1153 9.98023C15.1507 10.0152 15.1822 10.0533 15.2096 10.094C15.2215 10.1125 15.2331 10.1315 15.2439 10.1511C15.2527 10.1665 15.2607 10.1824 15.2682 10.1987C15.275 10.2143 15.2815 10.23 15.2876 10.246C15.2938 10.2615 15.2992 10.2774 15.304 10.2934C15.3209 10.35 15.3316 10.4095 15.3348 10.4709C15.3359 10.4845 15.3363 10.4979 15.3363 10.5112L15.333 10.5502L15.329 10.613C15.3236 10.6527 15.3151 10.6915 15.3037 10.7291C15.2992 10.7451 15.2938 10.761 15.2879 10.7766C15.2815 10.7924 15.275 10.8081 15.2679 10.8235C15.2607 10.84 15.2527 10.856 15.2441 10.8717C15.2331 10.8909 15.2215 10.91 15.2091 10.9285C15.2022 10.9394 15.1945 10.9502 15.1866 10.9608C15.1647 10.9894 15.1413 11.0163 15.1161 11.0415L15.1153 11.0422L11.3513 14.7902C11.2053 14.9362 11.0133 15.0092 10.8223 15.0092C10.6303 15.0092 10.4373 14.9362 10.2913 14.7882C9.9993 14.4942 10.0003 14.0202 10.2933 13.7282L12.77 11.2612H6.4139C5.9999 11.2612 5.6639 10.9252 5.6639 10.5112C5.6639 10.0972 5.9999 9.76123 6.4139 9.76123H12.77L10.2933 7.29423C10.0003 7.00223 9.9993 6.52823 10.2913 6.23423C10.5833 5.94023 11.0573 5.94023 11.3513 6.23223Z" fill="#946FDE"/>
</svg>
