<?xml version="1.0" encoding="UTF-8" ?>
<!DOCTYPE svg PUBLIC "-//W3C//DTD SVG 1.1//EN" "http://www.w3.org/Graphics/SVG/1.1/DTD/svg11.dtd">
<svg width="375pt" height="1472pt" viewBox="0 0 375 1472" preserveAspectRatio="none" version="1.1" xmlns="http://www.w3.org/2000/svg">
<g id="#fdfdffff">
<path fill="#fdfdff" opacity="1.00" d=" M 18.22 0.00 L 129.88 0.00 C 136.95 0.50 143.52 4.82 147.01 10.96 C 154.81 24.14 163.79 36.58 173.08 48.73 C 177.05 54.25 184.35 57.25 191.05 55.96 C 195.69 55.18 199.84 52.43 202.67 48.72 C 212.18 36.35 221.26 23.62 229.21 10.18 C 232.59 4.52 238.74 0.80 245.23 0.00 L 355.93 0.00 C 365.72 0.24 374.15 8.55 375.00 18.23 L 375.00 1472.00 L 0.00 1472.00 L 0.00 19.09 C 0.23 9.29 8.54 0.86 18.22 0.00 Z" />
</g>
</svg>
