<?xml version="1.0" encoding="UTF-8" ?>
<!DOCTYPE svg PUBLIC "-//W3C//DTD SVG 1.1//EN" "http://www.w3.org/Graphics/SVG/1.1/DTD/svg11.dtd">
<svg width="1570pt" height="790pt" preserveAspectRatio="none" viewBox="0 0 1570 790" version="1.1" xmlns="http://www.w3.org/2000/svg">
<g id="#fdfdffff">
<path fill="rgba(255, 255, 255, 0.6)" opacity="1.00" d=" M 18.09 0.00 L 130.02 0.00 C 137.02 0.57 143.50 4.83 146.97 10.90 C 154.67 23.90 163.50 36.18 172.66 48.18 C 176.56 53.98 184.00 57.27 190.91 55.99 C 195.59 55.23 199.80 52.48 202.66 48.74 C 212.19 36.34 221.28 23.59 229.25 10.12 C 232.60 4.53 238.68 0.87 245.09 0.00 L 1551.14 0.00 C 1561.19 0.49 1569.59 9.31 1570.00 19.30 L 1570.00 770.73 C 1569.88 780.92 1560.90 789.78 1550.77 790.00 L 18.86 790.00 C 8.84 789.63 0.22 780.78 0.00 770.78 L 0.00 18.85 C 0.37 9.18 8.55 0.94 18.09 0.00 Z" />
</g>
</svg>
