<svg width="24" height="25" viewBox="0 0 24 25" fill="none" xmlns="http://www.w3.org/2000/svg">
<path fill-rule="evenodd" clip-rule="evenodd" d="M15.7935 1.69092C16.2075 1.69092 16.5435 2.02692 16.5435 2.44092L16.544 3.28873C18.0041 3.38883 19.2167 3.88896 20.075 4.74902C21.012 5.69002 21.505 7.04302 21.5 8.66602V17.789C21.5 21.121 19.384 23.191 15.979 23.191H7.521C4.116 23.191 2 21.092 2 17.713V8.66402C2 5.52121 3.88706 3.50386 6.96469 3.28907L6.9653 2.44092C6.9653 2.02692 7.3013 1.69092 7.7153 1.69092C8.1293 1.69092 8.4653 2.02692 8.4653 2.44092L8.465 3.26992H15.043L15.0435 2.44092C15.0435 2.02692 15.3795 1.69092 15.7935 1.69092ZM20 10.5949H3.5V17.713C3.5 20.279 4.928 21.691 7.521 21.691H15.979C18.572 21.691 20 20.305 20 17.789L20 10.5949ZM16.2012 16.8872C16.6152 16.8872 16.9512 17.2232 16.9512 17.6372C16.9512 18.0512 16.6152 18.3872 16.2012 18.3872C15.7872 18.3872 15.4472 18.0512 15.4472 17.6372C15.4472 17.2232 15.7782 16.8872 16.1922 16.8872H16.2012ZM11.7637 16.8872C12.1777 16.8872 12.5137 17.2232 12.5137 17.6372C12.5137 18.0512 12.1777 18.3872 11.7637 18.3872C11.3497 18.3872 11.0097 18.0512 11.0097 17.6372C11.0097 17.2232 11.3407 16.8872 11.7547 16.8872H11.7637ZM7.3169 16.8872C7.7309 16.8872 8.0669 17.2232 8.0669 17.6372C8.0669 18.0512 7.7309 18.3872 7.3169 18.3872C6.9029 18.3872 6.5619 18.0512 6.5619 17.6372C6.5619 17.2232 6.8939 16.8872 7.3079 16.8872H7.3169ZM16.2012 13.0005C16.6152 13.0005 16.9512 13.3365 16.9512 13.7505C16.9512 14.1645 16.6152 14.5005 16.2012 14.5005C15.7872 14.5005 15.4472 14.1645 15.4472 13.7505C15.4472 13.3365 15.7782 13.0005 16.1922 13.0005H16.2012ZM11.7637 13.0005C12.1777 13.0005 12.5137 13.3365 12.5137 13.7505C12.5137 14.1645 12.1777 14.5005 11.7637 14.5005C11.3497 14.5005 11.0097 14.1645 11.0097 13.7505C11.0097 13.3365 11.3407 13.0005 11.7547 13.0005H11.7637ZM7.3169 13.0005C7.7309 13.0005 8.0669 13.3365 8.0669 13.7505C8.0669 14.1645 7.7309 14.5005 7.3169 14.5005C6.9029 14.5005 6.5619 14.1645 6.5619 13.7505C6.5619 13.3365 6.8939 13.0005 7.3079 13.0005H7.3169ZM15.043 4.76992H8.465L8.4653 5.73192C8.4653 6.14592 8.1293 6.48192 7.7153 6.48192C7.3013 6.48192 6.9653 6.14592 6.9653 5.73192L6.96477 4.79262C4.72454 4.98081 3.5 6.33877 3.5 8.66402V9.09492H20L20 8.66402C20.004 7.42902 19.672 6.46902 19.013 5.80902C18.4345 5.22883 17.5889 4.88232 16.5444 4.7931L16.5435 5.73192C16.5435 6.14592 16.2075 6.48192 15.7935 6.48192C15.3795 6.48192 15.0435 6.14592 15.0435 5.73192L15.043 4.76992Z" fill="white"/>
</svg>
