<svg width="25" height="25" viewBox="0 0 25 25" fill="none" xmlns="http://www.w3.org/2000/svg">
<path d="M12.558 2.77254C16.7115 2.80323 20.4153 5.39049 21.8675 9.27633C23.3199 13.1626 22.2187 17.5406 19.0997 20.2803C15.9812 23.0197 11.4929 23.5528 7.81788 21.6204L7.77208 21.6044C7.76493 21.6002 7.76378 21.5967 7.76224 21.5919L7.07971 21.2057C6.9407 21.1488 6.78665 21.1396 6.69261 21.1633C5.9831 21.4184 5.25798 21.6279 4.52167 21.7905L4.38671 21.8067C3.57616 21.8247 3.16776 21.2988 3.16776 20.5334L3.1873 20.3694C3.37136 19.6082 3.60204 18.8589 3.86458 18.1651C3.90531 18.0338 3.89175 17.8917 3.82147 17.76L3.63765 17.4016C2.01288 14.2951 2.13541 10.566 3.96059 7.57256C5.78554 4.57947 9.04635 2.75859 12.558 2.77254ZM12.5484 4.16709L12.2675 4.17149C9.35494 4.25482 6.67338 5.80367 5.15196 8.29895C3.58168 10.8744 3.47627 14.0823 4.87662 16.7598L5.05755 17.1127C5.29818 17.563 5.34853 18.0907 5.18389 18.6176C4.92804 19.2971 4.71419 19.9917 4.54356 20.6974L4.638 20.3295L5.03273 20.2266C5.16823 20.1892 5.30406 20.1499 5.4406 20.1085L5.85272 19.978L6.27133 19.8342C6.71354 19.7124 7.1837 19.7406 7.64685 19.9315C7.74408 19.9783 7.86471 20.0434 8.01677 20.1294L8.43909 20.3717C8.44625 20.3737 8.45251 20.3754 8.45729 20.3767L8.44496 20.375L8.73269 20.5192C11.7582 21.9801 15.3626 21.5505 17.9587 19.4191L18.1788 19.232C20.8626 16.8746 21.81 13.1082 20.5605 9.76481C19.3109 6.42107 16.1231 4.19428 12.5484 4.16709ZM8.11596 11.632C8.74606 11.632 9.25732 12.1425 9.25732 12.7727C9.25732 13.4029 8.74606 13.9133 8.11596 13.9133C7.48586 13.9133 6.9746 13.4029 6.9746 12.7727C6.9746 12.1425 7.48586 11.632 8.11596 11.632ZM12.5528 11.632C13.1829 11.632 13.6942 12.1425 13.6942 12.7727C13.6942 13.4029 13.1829 13.9133 12.5528 13.9133C11.9227 13.9133 11.4115 13.4029 11.4115 12.7727C11.4115 12.1425 11.9227 11.632 12.5528 11.632ZM16.9897 11.632C17.6198 11.632 18.1311 12.1425 18.1311 12.7727C18.1311 13.4029 17.6198 13.9133 16.9897 13.9133C16.3596 13.9133 15.8484 13.4029 15.8484 12.7727C15.8484 12.1425 16.3596 11.632 16.9897 11.632Z" fill="white"/>
</svg>
