<svg width="148" height="142" viewBox="0 0 148 142" fill="#E5E5E5" xmlns="http://www.w3.org/2000/svg">
<path d="M74.0007 0.16687C114.4 0.16687 147.3 31.9445 147.3 71.0412C147.3 110.056 114.4 141.834 74.0007 141.834C33.601 141.834 0.701172 110.056 0.701172 71.0412C0.701172 31.9445 33.601 0.16687 74.0007 0.16687ZM65.6519 42.8787C64.0953 42.8787 62.6095 43.2204 61.1945 43.9038C59.4257 44.8606 58.0106 46.364 57.2323 48.1408C56.7371 49.3709 55.9588 53.0612 55.9588 53.1296C55.1805 57.1616 54.756 63.7221 54.756 70.966C54.756 77.8751 55.1805 84.1555 55.8173 88.2558C55.8881 88.3241 56.6663 92.9029 57.5154 94.4746C59.0719 97.3449 62.1143 99.1217 65.3689 99.1217H65.6519C67.7745 99.0534 72.2319 97.2766 72.2319 97.2082C79.7316 94.2013 94.5189 84.8389 100.462 78.62L100.887 78.21C101.665 77.4583 102.655 76.2965 102.868 76.0231C104 74.588 104.566 72.8112 104.566 71.0412C104.566 69.0526 103.929 67.2074 102.726 65.7039C102.443 65.4306 101.382 64.2688 100.391 63.3121C94.5896 57.2983 79.4486 47.4574 71.5243 44.4505C70.3215 43.979 67.2792 42.9471 65.6519 42.8787Z" fill="white"/>
</svg>
