<svg width="25" height="25" viewBox="0 0 25 25" fill="none" xmlns="http://www.w3.org/2000/svg">
<path d="M21.1797 14.9643L16.6797 14.9643L16.6797 5.21429L21.1797 5.2143C21.3786 5.2143 21.5694 5.29331 21.71 5.43396C21.8507 5.57462 21.9297 5.76538 21.9297 5.9643L21.9297 14.2143C21.9297 14.4132 21.8507 14.604 21.71 14.7446C21.5694 14.8853 21.3786 14.9643 21.1797 14.9643V14.9643Z" stroke="#FF5C7C" stroke-linecap="round" stroke-linejoin="round"/>
<path d="M16.6797 14.9643L12.9297 22.4643C12.5357 22.4643 12.1456 22.3867 11.7816 22.2359C11.4177 22.0852 11.0869 21.8642 10.8084 21.5856C10.5298 21.307 10.3088 20.9763 10.158 20.6123C10.0073 20.2484 9.92969 19.8583 9.92969 19.4643L9.92969 17.2143L4.12886 17.2143C3.91617 17.2143 3.70591 17.1691 3.51204 17.0816C3.31816 16.9941 3.14511 16.8664 3.00435 16.707C2.86359 16.5475 2.75835 16.36 2.69561 16.1568C2.63287 15.9535 2.61407 15.7393 2.64045 15.5282L3.76545 6.52824C3.8108 6.16546 3.98708 5.83173 4.26116 5.58978C4.53524 5.34782 4.88826 5.21429 5.25386 5.21429L16.6797 5.2143" stroke="#FF5C7C" stroke-linecap="round" stroke-linejoin="round"/>
</svg>
