<svg width="20" height="20" viewBox="0 0 20 20" fill="none" xmlns="http://www.w3.org/2000/svg">
<path d="M7.59126 12.4264L7.91106 12.4278C12.5556 12.4682 15.1835 13.4063 15.1835 15.9685C15.1835 18.4765 12.6649 19.444 8.22343 19.525L7.59126 19.5306C2.74676 19.5306 0 18.6097 0 15.9885C0 13.3639 2.75769 12.4264 7.59126 12.4264ZM7.59126 13.9264C3.57377 13.9264 1.50005 14.6314 1.50005 15.9885C1.50005 17.337 3.5688 18.0306 7.59126 18.0306C11.609 18.0306 13.6835 17.3255 13.6835 15.9685C13.6835 14.6207 11.6128 13.9264 7.59126 13.9264ZM15.5872 11.7182C16.1678 11.7577 16.745 11.8409 17.2997 11.9639C18.4878 12.2002 19.3711 12.6414 19.7759 13.4906C20.0747 14.1193 20.0747 14.8508 19.7759 15.4795C19.3735 16.3265 18.4993 16.7645 17.3045 17.0103C16.8988 17.0937 16.5022 16.8325 16.4187 16.4267C16.3353 16.021 16.5966 15.6244 17.0023 15.541C17.7712 15.3828 18.2829 15.1264 18.4211 14.8356C18.5262 14.6143 18.5262 14.3558 18.4214 14.1352C18.2823 13.8434 17.7679 13.5865 16.9913 13.4318C16.4939 13.3217 15.991 13.2492 15.4854 13.2148C15.0722 13.1867 14.7599 12.8289 14.788 12.4156C14.8162 12.0023 15.174 11.6901 15.5872 11.7182ZM7.59126 0.469482C10.4394 0.469482 12.7264 2.75617 12.7264 5.60366C12.7264 8.45197 10.4396 10.7388 7.59126 10.7388C4.74309 10.7388 2.45709 8.45211 2.45709 5.60366C2.45709 2.75603 4.74327 0.469482 7.59126 0.469482ZM14.0202 1.53912C16.2552 1.53912 18.0673 3.35166 18.0673 5.58626C18.0673 7.82155 16.2555 9.6334 14.0202 9.6334C13.606 9.6334 13.2702 9.2976 13.2702 8.88337C13.2702 8.46915 13.606 8.13335 14.0202 8.13335C15.427 8.13335 16.5673 6.99309 16.5673 5.58626C16.5673 4.18004 15.4266 3.03917 14.0202 3.03917C13.606 3.03917 13.2702 2.70337 13.2702 2.28915C13.2702 1.87492 13.606 1.53912 14.0202 1.53912ZM7.59126 1.96953C5.57178 1.96953 3.95714 3.58443 3.95714 5.60366C3.95714 7.62376 5.57165 9.23879 7.59126 9.23879C9.61112 9.23879 11.2264 7.62352 11.2264 5.60366C11.2264 3.58468 9.61099 1.96953 7.59126 1.96953Z" fill="#946FDE"/>
</svg>
