<svg width="30" height="30" viewBox="0 0 30 30" fill="none" xmlns="http://www.w3.org/2000/svg">
<path d="M3.75 15H8.4375L10.3125 12.1875L14.0625 17.8125L15.9375 15H18.75" stroke="#FFAFC7" stroke-width="2" stroke-linecap="round" stroke-linejoin="round"/>
<path d="M3.29464 11.2492C3.28577 11.0938 3.28131 10.9378 3.28125 10.7813C3.28149 9.37282 3.76952 8.00794 4.66236 6.91866C5.5552 5.82938 6.79774 5.08295 8.17874 4.80627C9.55973 4.52959 10.9939 4.73974 12.2375 5.40099C13.481 6.06224 14.4572 7.13377 15 8.43341L15 8.43342C15.5428 7.13378 16.5189 6.06224 17.7625 5.40099C19.0061 4.73974 20.4403 4.52959 21.8213 4.80627C23.2023 5.08295 24.4448 5.82938 25.3376 6.91866C26.2305 8.00794 26.7185 9.37282 26.7188 10.7813C26.7188 18.75 15 25.3125 15 25.3125C15 25.3125 10.319 22.6911 6.87392 18.7501" stroke="#FFAFC7" stroke-width="2" stroke-linecap="round" stroke-linejoin="round"/>
</svg>
