<svg width="30" height="30" viewBox="0 0 30 30" fill="none" xmlns="http://www.w3.org/2000/svg">
<path d="M11.25 13.125H20.625" stroke="#946FDE" stroke-width="2" stroke-linecap="round" stroke-linejoin="round"/>
<path d="M11.25 16.875H20.625" stroke="#946FDE" stroke-width="2" stroke-linecap="round" stroke-linejoin="round"/>
<path d="M3.75 23.4375C4.24728 23.4375 4.72419 23.24 5.07583 22.8883C5.42746 22.5367 5.625 22.0598 5.625 21.5625V7.5C5.625 7.25136 5.72377 7.0129 5.89959 6.83709C6.0754 6.66127 6.31386 6.5625 6.5625 6.5625H25.3125C25.5611 6.5625 25.7996 6.66127 25.9754 6.83709C26.1512 7.0129 26.25 7.25136 26.25 7.5V21.5625C26.25 22.0598 26.0525 22.5367 25.7008 22.8883C25.3492 23.24 24.8723 23.4375 24.375 23.4375H3.75Z" stroke="#946FDE" stroke-width="2" stroke-linecap="round" stroke-linejoin="round"/>
<path d="M3.75 23.4375C3.25272 23.4375 2.77581 23.24 2.42417 22.8883C2.07254 22.5367 1.875 22.0598 1.875 21.5625V10.3125" stroke="#946FDE" stroke-width="2" stroke-linecap="round" stroke-linejoin="round"/>
</svg>
