<svg width="30" height="30" viewBox="0 0 30 30" fill="none" xmlns="http://www.w3.org/2000/svg">
<path d="M13 26.25C19.2132 26.25 24.25 21.2132 24.25 15C24.25 8.7868 19.2132 3.75 13 3.75C6.7868 3.75 1.75 8.7868 1.75 15C1.75 21.2132 6.7868 26.25 13 26.25Z" stroke="#94CF65" stroke-width="2" stroke-linecap="round" stroke-linejoin="round"/>
<path d="M7.375 5.25732L13 15.0001" stroke="#94CF65" stroke-width="2" stroke-linecap="round" stroke-linejoin="round"/>
<path d="M7.375 24.7428L13 15" stroke="#94CF65" stroke-width="2" stroke-linecap="round" stroke-linejoin="round"/>
<path d="M24.25 15H13" stroke="#94CF65" stroke-width="2" stroke-linecap="round" stroke-linejoin="round"/>
<path d="M11.6602 3.82715C13.7825 4.77762 15.5582 6.36213 16.7434 8.36285C17.9286 10.3636 18.4649 12.6823 18.2788 15.0002" stroke="#94CF65" stroke-width="2" stroke-linecap="round" stroke-linejoin="round"/>
<path d="M3.99272 21.7457C3.7547 19.4325 4.23903 17.1023 5.37912 15.0756C6.51921 13.0488 8.25909 11.425 10.3596 10.4272" stroke="#94CF65" stroke-width="2" stroke-linecap="round" stroke-linejoin="round"/>
<path d="M23.3488 19.4272C21.4645 20.79 19.2044 21.5356 16.8791 21.5616C14.5538 21.5876 12.2776 20.8928 10.3633 19.5726" stroke="#94CF65" stroke-width="2" stroke-linecap="round" stroke-linejoin="round"/>
</svg>
