<svg width="16" height="17" viewBox="0 0 16 17" fill="none" xmlns="http://www.w3.org/2000/svg">
<path fill-rule="evenodd" clip-rule="evenodd" d="M7.99967 1.91699C11.6757 1.91699 14.6663 4.90766 14.6663 8.58366C14.6663 12.2597 11.6757 15.2503 7.99967 15.2503C4.32367 15.2503 1.33301 12.2597 1.33301 8.58366C1.33301 4.90766 4.32367 1.91699 7.99967 1.91699ZM7.99967 2.91699C4.87501 2.91699 2.33301 5.45899 2.33301 8.58366C2.33301 11.7083 4.87501 14.2503 7.99967 14.2503C11.1243 14.2503 13.6663 11.7083 13.6663 8.58366C13.6663 5.45899 11.1243 2.91699 7.99967 2.91699ZM7.77381 5.31393C8.05047 5.31393 8.27381 5.53793 8.27381 5.81393V8.76193L10.5438 10.1153C10.7805 10.2573 10.8585 10.5639 10.7171 10.8013C10.6231 10.9579 10.4571 11.0453 10.2871 11.0453C10.1998 11.0453 10.1118 11.0226 10.0311 10.9753L7.51781 9.47593C7.36714 9.38526 7.27381 9.22193 7.27381 9.04593V5.81393C7.27381 5.53793 7.49781 5.31393 7.77381 5.31393Z" fill="#76AE49"/>
</svg>
