<svg width="20" height="21" viewBox="0 0 20 21" fill="none" xmlns="http://www.w3.org/2000/svg">
<path d="M14.0147 12.5176C13.8818 13.3689 13.4818 14.1559 12.8726 14.7652C12.2634 15.3744 11.4763 15.7744 10.625 15.9073" stroke="#F78AAA" stroke-width="2" stroke-linecap="round" stroke-linejoin="round"/>
<path d="M5.62781 6.0609C4.4217 7.87913 3.4375 9.95605 3.4375 11.8924C3.4375 13.6328 4.1289 15.302 5.35961 16.5328C6.59032 17.7635 8.25952 18.4549 10 18.4549C11.7405 18.4549 13.4097 17.7635 14.6404 16.5328C15.8711 15.302 16.5625 13.6328 16.5625 11.8924C16.5625 7.82986 13.75 4.70486 11.4706 2.4292L11.4705 2.42926L8.75 8.14236L5.62789 6.06096L5.62781 6.0609Z" stroke="#F78AAA" stroke-width="2" stroke-linecap="round" stroke-linejoin="round"/>
</svg>
