<svg width="20" height="21" viewBox="0 0 20 21" fill="none" xmlns="http://www.w3.org/2000/svg">
<g clip-path="url(#clip0_1105:4779)">
<path d="M10.4516 14.1162C10.1603 14.5043 10 14.9853 10 15.4711C10 16.7159 11.0132 17.7291 12.2581 17.7291C13.5029 17.7291 14.5161 16.7159 14.5161 15.4711C14.5161 14.9853 14.3558 14.5043 14.0645 14.1166L12.2581 11.7075L10.4516 14.1162ZM13.871 15.4711C13.871 16.3604 13.1474 17.084 12.2581 17.084C11.3687 17.084 10.6452 16.3604 10.6452 15.4711C10.6452 15.1243 10.7597 14.7804 10.9677 14.5033L12.2581 12.783L13.5484 14.5036C13.7565 14.7804 13.871 15.1243 13.871 15.4711Z" fill="#FFDB5E"/>
<path d="M10.1934 7.34263L8.38697 4.93359L6.58052 7.3423C6.28923 7.73037 6.12891 8.21134 6.12891 8.69714C6.12891 9.94198 7.14213 10.9552 8.38697 10.9552C9.63181 10.9552 10.645 9.94198 10.645 8.69714C10.645 8.21134 10.4847 7.73037 10.1934 7.34263ZM8.38697 10.31C7.49762 10.31 6.77407 9.5865 6.77407 8.69714C6.77407 8.35037 6.88858 8.0065 7.09665 7.7294L8.38697 6.00908L9.67729 7.72972C9.88536 8.0065 9.99988 8.35037 9.99988 8.69714C9.99988 9.5865 9.27633 10.31 8.38697 10.31Z" fill="#FFDB5E"/>
<path d="M18.7097 9.66475C17.9981 9.66475 17.4194 10.2435 17.4194 10.9551C17.4194 11.1019 17.4494 11.2409 17.4945 11.3725L16.1268 12.1931L12.5806 10.1248V5.97895L16.4516 3.72088V0.955078H15.8065V3.35056L12.2581 5.42056L8.70968 3.35056V0.955078H8.06452V3.35056L4.52194 5.41701L2.53645 4.17605C2.56258 4.07379 2.58065 3.96863 2.58065 3.8583C2.58065 3.14669 2.00194 2.56798 1.29032 2.56798C0.57871 2.56798 0 3.14669 0 3.8583C0 4.56992 0.57871 5.14863 1.29032 5.14863C1.65903 5.14863 1.99 4.99121 2.22548 4.7425L4.19355 5.9725V10.1248L0.482581 12.2893L0.807742 12.847L4.51613 10.6831L6.29032 11.718L8.06452 12.7528V16.8986L4.81645 18.7931C4.58065 18.5373 4.24581 18.3744 3.87097 18.3744C3.15935 18.3744 2.58065 18.9531 2.58065 19.6648C2.58065 20.3764 3.15935 20.9551 3.87097 20.9551C4.58258 20.9551 5.16129 20.3764 5.16129 19.6648C5.16129 19.5602 5.14548 19.4599 5.12194 19.3625L8.3871 17.4577L11.9355 19.5273V20.9551H12.5806V19.5273L14.1435 18.6154L16.1306 17.4564L18.2271 18.6544L18.5471 18.0944L16.4516 16.897V12.7506L17.851 11.9109C18.0797 12.1167 18.3787 12.2454 18.7097 12.2454C19.4213 12.2454 20 11.6667 20 10.9551C20 10.2435 19.4213 9.66475 18.7097 9.66475ZM1.29032 4.50347C0.934516 4.50347 0.645161 4.21411 0.645161 3.8583C0.645161 3.5025 0.934516 3.21314 1.29032 3.21314C1.64613 3.21314 1.93548 3.5025 1.93548 3.8583C1.93548 4.21411 1.64613 4.50347 1.29032 4.50347ZM3.87097 20.3099C3.51516 20.3099 3.22581 20.0206 3.22581 19.6648C3.22581 19.3089 3.51516 19.0196 3.87097 19.0196C4.22677 19.0196 4.51613 19.3089 4.51613 19.6648C4.51613 20.0206 4.22677 20.3099 3.87097 20.3099ZM6.6129 11.1596L4.83871 10.1248V5.97895L8.3871 3.90895L11.9355 5.97895V10.1248L10.1613 11.1596L8.3871 12.1944L6.6129 11.1596ZM15.8065 16.8989L13.8165 18.0599L12.2581 18.9689L8.70968 16.8989V12.7531L10.4839 11.7183L12.2581 10.6835L15.8065 12.7535V16.8989ZM18.7097 11.6002C18.3539 11.6002 18.0645 11.3109 18.0645 10.9551C18.0645 10.5993 18.3539 10.3099 18.7097 10.3099C19.0655 10.3099 19.3548 10.5993 19.3548 10.9551C19.3548 11.3109 19.0655 11.6002 18.7097 11.6002Z" fill="#FFDB5E"/>
<path d="M17.7428 7.72949H17.0977V8.37465H17.7428V7.72949Z" fill="#FFDB5E"/>
<path d="M16.4538 7.72949H15.8086V8.37465H16.4538V7.72949Z" fill="#FFDB5E"/>
<path d="M15.1608 7.72949H14.5156V8.37465H15.1608V7.72949Z" fill="#FFDB5E"/>
<path d="M6.12954 14.5034H5.48438V15.1486H6.12954V14.5034Z" fill="#FFDB5E"/>
<path d="M4.83657 14.5039H4.19141V15.1491H4.83657V14.5039Z" fill="#FFDB5E"/>
<path d="M3.5475 14.5034H2.90234V15.1486H3.5475V14.5034Z" fill="#FFDB5E"/>
</g>
<defs>
<clipPath id="clip0_1105:4779">
<rect width="20" height="20" fill="white" transform="translate(0 0.955078)"/>
</clipPath>
</defs>
</svg>
