<svg width="20" height="21" viewBox="0 0 20 21" fill="none" xmlns="http://www.w3.org/2000/svg">
<g clip-path="url(#clip0_1105:4772)">
<path d="M19.8893 14.0932L19.4618 13.0836C19.2441 12.5696 18.7428 12.2374 18.1846 12.2374H16.4193L17.6668 10.9899C18.0682 10.5885 18.1846 9.99122 17.9633 9.46831L17.5358 8.45877C17.3181 7.94472 16.8168 7.61252 16.2585 7.61252H14.4921L15.2256 6.87893C15.2257 6.87885 15.2258 6.87873 15.2259 6.87865L15.7395 6.36504C16.141 5.96352 16.2574 5.36627 16.036 4.8434L15.6085 3.83389C15.3909 3.3198 14.8895 2.98765 14.3312 2.98765H13.5968C13.381 2.98765 13.2062 3.16252 13.2062 3.37824C13.2062 3.59396 13.381 3.76882 13.5968 3.76882H14.0485L12.5793 5.23797H12.5131C11.7823 5.23797 11.1228 4.80442 10.8331 4.13351L10.4404 3.22423C10.2082 2.68315 10.3194 2.01068 10.7049 1.62529C10.8574 1.47277 10.8574 1.22545 10.7049 1.07289C10.5523 0.920365 10.305 0.920365 10.1525 1.07289C9.54057 1.68482 9.36376 2.69616 9.72251 3.53224C9.72255 3.53236 9.72262 3.53244 9.72266 3.53259C9.72274 3.53275 9.72278 3.53295 9.72286 3.5331L10.1159 4.4432C10.443 5.20059 11.1003 5.74557 11.8769 5.94035L11.7201 6.09717C11.3169 6.50037 11.2017 7.09949 11.4265 7.62346L12.3625 9.80476C12.5813 10.3146 13.0811 10.644 13.6359 10.644H13.7253L13.6642 10.7052C13.261 11.1084 13.1458 11.7075 13.3706 12.2315L14.2309 14.2364L14.1425 14.1697C13.6969 13.8334 13.0967 13.7964 12.6133 14.0755L11.0845 14.9581L11.5411 13.2541C11.688 12.7056 11.4902 12.1302 11.037 11.788L10.1621 11.1275C9.71661 10.7911 9.11628 10.7541 8.63282 11.0333L7.10301 11.9165L7.37154 10.9144V10.9143L7.55965 10.2124C7.70658 9.66391 7.50875 9.0885 7.0556 8.74635L6.18065 8.0858C5.73511 7.74942 5.13486 7.71247 4.65135 7.99159L1.20526 9.98118C0.84456 9.63333 0.697231 9.11909 0.829639 8.62492C0.885493 8.41658 0.761834 8.20238 0.553457 8.14653C0.34508 8.09064 0.130923 8.21434 0.075069 8.42271C-0.15604 9.28509 0.15674 10.1876 0.871862 10.7221C0.882368 10.73 0.893227 10.737 0.904241 10.7437C0.913537 10.7521 0.922911 10.7605 0.933105 10.7681L1.72857 11.3598C2.39049 11.8521 3.23228 11.9954 4.0022 11.7758L3.94479 11.9901C3.79722 12.5408 3.99697 13.1173 4.45368 13.4586L6.35497 14.8797C6.60002 15.0629 6.89163 15.1558 7.18449 15.1558C7.42275 15.1558 7.66186 15.0943 7.87739 14.9698L7.95484 14.9251L7.93242 15.0087C7.78486 15.5595 7.9846 16.1359 8.44131 16.4773L10.3426 17.8984C10.5877 18.0815 10.8792 18.1744 11.1721 18.1744C11.4104 18.1744 11.6495 18.1129 11.865 17.9885L12.0447 17.8847C12.037 18.7019 12.4139 19.4847 13.0925 19.9919L13.6845 20.4344C14.1459 20.7792 14.6948 20.9542 15.2462 20.9541C15.6948 20.9541 16.145 20.8383 16.5507 20.6041L16.7467 20.491C16.9335 20.3831 16.9975 20.1442 16.8896 19.9574C16.7817 19.7706 16.5429 19.7065 16.3561 19.8145L16.1601 19.9276C15.6524 20.2207 15.0456 20.2488 14.5229 20.0231L15.4289 16.6419C15.4382 16.9649 15.5078 17.2899 15.6413 17.6009L15.9328 18.2801C16.3446 19.2399 17.2857 19.8601 18.3301 19.8601H18.5564C18.7721 19.8601 18.947 19.6852 18.947 19.4695C18.947 19.2539 18.7721 19.079 18.5564 19.079H18.3302C17.744 19.079 17.2044 18.7998 16.8646 18.3431L19.5929 15.6149C19.9944 15.2133 20.1107 14.6161 19.8893 14.0932ZM17.903 13.0186L16.4506 14.471H15.5801C15.3381 14.471 15.12 14.3272 15.0245 14.1048L14.8756 13.7577C14.9082 13.7401 14.9389 13.7177 14.9664 13.6902L15.6379 13.0186H17.903V13.0186ZM15.1872 5.81267L13.2729 7.72697C13.2728 7.727 13.2728 7.72704 13.2728 7.72708L12.6069 8.39299L12.1445 7.31545C12.0464 7.08684 12.0967 6.8255 12.2726 6.64962L14.8538 4.06844C14.8669 4.09086 14.879 4.11414 14.8893 4.13851L15.3167 5.14801C15.4134 5.37639 15.3625 5.6373 15.1872 5.81267ZM13.636 9.86292C13.394 9.86292 13.1759 9.71918 13.0805 9.49674L12.9386 9.16604L13.7109 8.39369H15.9758L14.5066 9.86288H13.636V9.86292ZM14.2166 11.2576L14.9445 10.5297C14.9445 10.5297 14.9446 10.5296 14.9446 10.5296L16.7809 8.69331C16.794 8.71573 16.8061 8.73901 16.8164 8.76338L17.2439 9.77289C17.3406 10.0013 17.2897 10.2622 17.1144 10.4376L16.8925 10.6595C16.8919 10.66 16.8913 10.6605 16.8907 10.6611L14.5508 13.001L14.0885 11.9235C13.9905 11.6949 14.0407 11.4335 14.2166 11.2576ZM4.20206 10.8495C3.56916 11.2149 2.78131 11.1692 2.19489 10.733L1.87613 10.4959L4.79712 8.80947L4.25936 10.8164L4.20206 10.8495ZM4.69947 12.1923L4.97198 11.1752C4.97206 11.175 4.97214 11.1747 4.97218 11.1745L5.64426 8.66632C5.66683 8.67917 5.6889 8.69331 5.71007 8.70925L6.58502 9.3698C6.78297 9.51924 6.8694 9.77062 6.80519 10.0102L6.61713 10.7121V10.7122L5.86076 13.535L4.92148 12.833C4.72224 12.6841 4.6351 12.4326 4.69947 12.1923ZM7.48692 14.2934C7.27729 14.4144 7.01658 14.3989 6.82277 14.2541L6.53452 14.0386L6.81722 12.9836L8.7787 11.8511L8.24094 13.8581L7.48692 14.2934ZM8.68711 15.2109L8.95341 14.2171C8.95352 14.2167 8.9536 14.2163 8.95372 14.216L9.62572 11.708C9.64833 11.7208 9.6704 11.735 9.69153 11.751L10.5664 12.4114C10.7644 12.5609 10.8508 12.8123 10.7866 13.0518L10.7054 13.3549C10.7052 13.3557 10.7049 13.3565 10.7047 13.3572L9.84824 16.5536L8.90915 15.8516C8.70988 15.7027 8.62274 15.4512 8.68711 15.2109ZM11.4746 17.312C11.265 17.4331 11.0042 17.4176 10.8104 17.2727L10.5077 17.0464C10.5271 17.0149 10.5426 16.9802 10.5527 16.9426L10.7985 16.0253L12.7601 14.8927L12.2285 16.8767L11.4746 17.312ZM14.7671 16.0941L13.8353 19.5718L13.5604 19.3662C12.958 18.916 12.6945 18.1557 12.8892 17.4293L12.9412 17.2353C12.9412 17.2352 12.9412 17.235 12.9413 17.2349L13.6069 14.7506C13.6293 14.7633 13.6511 14.7773 13.672 14.7931L14.547 15.4536C14.7449 15.6031 14.8313 15.8546 14.7671 16.0941ZM15.5578 15.7594C15.5342 15.5751 15.4736 15.3978 15.3797 15.2375C15.4454 15.247 15.5123 15.2521 15.5801 15.2521H15.7875C15.6923 15.4137 15.6156 15.5838 15.5578 15.7594ZM19.0405 15.0625L16.4947 17.6083L16.3593 17.2928C16.0627 16.6018 16.2147 15.8116 16.7465 15.2798L16.8885 15.1378C16.8886 15.1377 16.8887 15.1376 16.8888 15.1375L18.7074 13.3189C18.7204 13.3411 18.7323 13.3641 18.7425 13.3882L19.17 14.3978C19.2667 14.6262 19.2159 14.8871 19.0405 15.0625Z" fill="#53E0F3"/>
<path d="M11.8359 3.7675C11.939 3.7675 12.0394 3.7257 12.1124 3.65306C12.1851 3.58041 12.2265 3.47964 12.2265 3.37691C12.2265 3.27419 12.1851 3.17342 12.1124 3.10077C12.0394 3.02812 11.9386 2.98633 11.8359 2.98633C11.7332 2.98633 11.6324 3.02812 11.5598 3.10077C11.4871 3.17342 11.4453 3.27419 11.4453 3.37691C11.4453 3.48003 11.4871 3.58041 11.5598 3.65306C11.6324 3.7257 11.7332 3.7675 11.8359 3.7675Z" fill="#53E0F3"/>
</g>
<defs>
<clipPath id="clip0_1105:4772">
<rect width="20" height="20" fill="white" transform="translate(0 0.955078)"/>
</clipPath>
</defs>
</svg>
