<svg width="20" height="21" viewBox="0 0 20 21" fill="none" xmlns="http://www.w3.org/2000/svg">
<g clip-path="url(#clip0_1105:4796)">
<path d="M18.3333 9.2884C17.8066 9.2884 17.3425 9.5384 17.0366 9.9209L15.5417 8.76758C15.7217 8.42258 15.8334 8.03676 15.8334 7.62176C15.8334 6.24344 14.7117 5.12176 13.3334 5.12176C12.8917 5.12176 12.4825 5.24676 12.1225 5.44844L11.1592 3.81594C11.4709 3.51262 11.6667 3.09012 11.6667 2.62176C11.6667 1.70258 10.9192 0.955078 10 0.955078C9.08082 0.955078 8.33332 1.70258 8.33332 2.62176C8.33332 3.54094 9.08082 4.28844 10 4.28844C10.1508 4.28844 10.2942 4.26176 10.4325 4.22426L11.4658 5.97594C11.0775 6.41676 10.8333 6.98926 10.8333 7.62176C10.8333 8.16094 11.0083 8.65758 11.3 9.06594L9.53332 10.8326C8.96832 10.3943 8.26832 10.1218 7.5 10.1218C7.01832 10.1218 6.5625 10.2293 6.14832 10.4143L4.4675 7.7493C4.795 7.38098 5 6.9018 5 6.3718C5 5.22348 4.065 4.28848 2.91668 4.28848C1.76836 4.28848 0.833359 5.22348 0.833359 6.3718C0.833359 7.52012 1.76832 8.45508 2.91668 8.45508C3.23336 8.45508 3.53 8.3784 3.79918 8.25176L5.44086 10.8543C4.67086 11.4651 4.16668 12.3976 4.16668 13.4551C4.16668 14.2234 4.43918 14.9234 4.8775 15.4884L3.23 17.1359C2.90082 16.9167 2.5075 16.7884 2.08332 16.7884C0.935 16.7884 0 17.7234 0 18.8718C0 20.0201 0.935 20.9551 2.08332 20.9551C3.23164 20.9551 4.16664 20.0201 4.16664 18.8718C4.16664 18.4476 4.03832 18.0543 3.81914 17.7251L5.46664 16.0776C6.03164 16.5159 6.73164 16.7884 7.49996 16.7884C8.42578 16.7884 9.26328 16.4076 9.86828 15.7967L12.6233 18.1934C12.5483 18.4067 12.5 18.6326 12.5 18.8717C12.5 20.0201 13.435 20.9551 14.5833 20.9551C15.7316 20.9551 16.6666 20.0201 16.6666 18.8718C16.6666 17.7234 15.7316 16.7884 14.5833 16.7884C13.9783 16.7884 13.4375 17.0518 13.0566 17.4651L10.3675 15.1259C10.6558 14.6326 10.8333 14.0668 10.8333 13.4551C10.8333 12.6868 10.5608 11.9868 10.1225 11.4218L11.8891 9.65512C12.2975 9.9468 12.7941 10.1218 13.3333 10.1218C13.9958 10.1218 14.5958 9.85848 15.0433 9.43598L16.6916 10.7068C16.6791 10.7885 16.6666 10.8701 16.6666 10.9551C16.6666 11.8743 17.4141 12.6218 18.3333 12.6218C19.2525 12.6218 20 11.8743 20 10.9551C20 10.0359 19.2525 9.2884 18.3333 9.2884ZM10 3.45508C9.54082 3.45508 9.16668 3.0809 9.16668 2.62176C9.16668 2.16258 9.54086 1.78844 10 1.78844C10.4591 1.78844 10.8333 2.16262 10.8333 2.62176C10.8333 3.0809 10.4592 3.45508 10 3.45508ZM2.91668 7.62176C2.2275 7.62176 1.66668 7.06094 1.66668 6.37176C1.66668 5.68258 2.2275 5.12176 2.91668 5.12176C3.60586 5.12176 4.16668 5.68258 4.16668 6.37176C4.16668 7.0609 3.60582 7.62176 2.91668 7.62176ZM2.08332 20.1218C1.39414 20.1218 0.83332 19.5609 0.83332 18.8718C0.83332 18.1826 1.39414 17.6218 2.08332 17.6218C2.42332 17.6218 2.73082 17.7584 2.95582 17.9793C2.95914 17.9826 2.96 17.9876 2.96414 17.9909C2.96832 17.9943 2.97246 17.9951 2.97582 17.9993C3.19664 18.2243 3.33332 18.5318 3.33332 18.8718C3.33332 19.5609 2.7725 20.1218 2.08332 20.1218ZM14.5833 17.6218C15.2725 17.6218 15.8333 18.1826 15.8333 18.8718C15.8333 19.5609 15.2725 20.1218 14.5833 20.1218C13.8941 20.1218 13.3333 19.5609 13.3333 18.8718C13.3333 18.1826 13.8942 17.6218 14.5833 17.6218ZM7.5 15.9551C6.81582 15.9551 6.19582 15.6776 5.74418 15.2309C5.74086 15.2267 5.74 15.2226 5.73586 15.2184C5.73168 15.2142 5.72754 15.2134 5.72336 15.2101C5.2775 14.7593 5 14.1393 5 13.4551C5 12.0768 6.12168 10.9551 7.5 10.9551C8.18418 10.9551 8.80418 11.2326 9.25582 11.6793C9.25914 11.6834 9.26 11.6876 9.26414 11.6918C9.26832 11.6959 9.27246 11.6968 9.27664 11.7001C9.7225 12.1509 10 12.7709 10 13.4551C10 14.8334 8.87832 15.9551 7.5 15.9551ZM13.3333 9.2884C12.4141 9.2884 11.6666 8.5409 11.6666 7.62172C11.6666 6.70254 12.4141 5.95504 13.3333 5.95504C14.2525 5.95508 15 6.70258 15 7.62176C15 8.5409 14.2525 9.2884 13.3333 9.2884ZM18.3333 11.7884C17.8742 11.7884 17.5 11.4143 17.5 10.9551C17.5 10.4959 17.8742 10.1218 18.3333 10.1218C18.7925 10.1218 19.1666 10.4959 19.1666 10.9551C19.1666 11.4142 18.7925 11.7884 18.3333 11.7884Z" fill="#94CF65"/>
</g>
<defs>
<clipPath id="clip0_1105:4796">
<rect width="20" height="20" fill="white" transform="translate(0 0.955078)"/>
</clipPath>
</defs>
</svg>
