<svg width="30" height="31" viewBox="0 0 30 31" fill="none" xmlns="http://www.w3.org/2000/svg">
<path d="M25.9541 15.3193C26.4463 15.9697 26.7188 16.7666 26.7188 17.5957C26.7188 18.9111 25.9834 20.1562 24.7998 20.8506C24.4951 21.0293 24.1482 21.1234 23.7949 21.123H16.7695L16.9453 24.7236C16.9863 25.5937 16.6787 26.4199 16.0811 27.0498C15.7878 27.3602 15.4339 27.6073 15.0414 27.7756C14.6488 27.9439 14.2259 28.0299 13.7988 28.0283C12.2754 28.0283 10.9277 27.0029 10.5234 25.5351L8.00684 16.4238H7.99805L7.99805 3.88474H21.835C22.1045 3.88474 22.3682 3.93748 22.6113 4.04295C24.0059 4.63767 24.9053 5.99998 24.9053 7.5117C24.9053 7.88084 24.8525 8.24412 24.7471 8.59568C25.2393 9.24607 25.5117 10.0429 25.5117 10.872C25.5117 11.2412 25.459 11.6045 25.3535 11.956C25.8457 12.6064 26.1182 13.4033 26.1182 14.2324C26.1123 14.6015 26.0596 14.9678 25.9541 15.3193ZM3.28125 15.4863L3.28125 4.82224C3.28125 4.30369 3.7002 3.88474 4.21875 3.88474H6.12305L6.12305 16.4238H4.21875C3.7002 16.4238 3.28125 16.0049 3.28125 15.4863Z" fill="#F46691"/>
</svg>
