<svg width="30" height="30" viewBox="0 0 30 30" fill="none" xmlns="http://www.w3.org/2000/svg">
<path d="M4.0459 14.3642C3.55371 15.0146 3.28125 15.8115 3.28125 16.6406C3.28125 17.956 4.0166 19.2011 5.2002 19.8955C5.5049 20.0742 5.85183 20.1683 6.20508 20.1679L13.2305 20.1679L13.0547 23.7685C13.0137 24.6386 13.3213 25.4648 13.9189 26.0947C14.2122 26.4052 14.5661 26.6522 14.9586 26.8205C15.3512 26.9888 15.7741 27.0748 16.2012 27.0732C17.7246 27.0732 19.0723 26.0478 19.4766 24.5801L21.9932 15.4687L25.7813 15.4687C26.2998 15.4687 26.7188 15.0498 26.7188 14.5312L26.7188 3.86717C26.7188 3.34861 26.2998 2.92967 25.7813 2.92967L8.16504 2.92966C7.89551 2.92966 7.63184 2.9824 7.38867 3.08787C5.99414 3.68259 5.09473 5.0449 5.09473 6.55662C5.09473 6.92576 5.14746 7.28904 5.25293 7.6406C4.76074 8.29099 4.48828 9.08787 4.48828 9.91697C4.48828 10.2861 4.54102 10.6494 4.64649 11.001C4.1543 11.6513 3.88184 12.4482 3.88184 13.2773C3.8877 13.6465 3.94043 14.0127 4.0459 14.3642ZM24.6094 5.03904L24.6094 13.3594L22.2363 13.3594L22.2363 5.03904L24.6094 5.03904ZM5.96484 15.3808L6.60645 14.8242L6.19922 14.0801C6.06506 13.8349 5.99549 13.5597 5.99707 13.2802C5.99707 12.7969 6.20801 12.3369 6.57129 12.0205L7.21289 11.4638L6.80567 10.7197C6.6715 10.4746 6.60194 10.1993 6.60352 9.9199C6.60352 9.4365 6.81445 8.97654 7.17774 8.66013L7.81934 8.10349L7.41211 7.35935C7.27795 7.11423 7.20838 6.83899 7.20996 6.55955C7.20996 5.9033 7.59668 5.3115 8.19434 5.04197L20.3613 5.04197L20.3613 13.4531L17.4463 24.0146C17.3711 24.2853 17.2098 24.5242 16.9867 24.6949C16.7636 24.8657 16.4909 24.9591 16.21 24.9609C15.9873 24.9609 15.7676 24.8965 15.5918 24.7646C15.3018 24.5478 15.1465 24.2197 15.1641 23.8711L15.4453 18.0586L6.23438 18.0586C5.71289 17.7392 5.39063 17.2002 5.39063 16.6406C5.39063 16.1572 5.60156 15.7002 5.96484 15.3808Z" fill="#F46691"/>
</svg>
