<svg width="25" height="25" viewBox="0 0 25 25" fill="none" xmlns="http://www.w3.org/2000/svg">
<path d="M21.2633 13.3132C21.657 12.7929 21.875 12.1554 21.875 11.4921C21.875 10.4398 21.2867 9.44367 20.3398 8.8882C20.0961 8.74522 19.8185 8.66997 19.5359 8.67023H13.9156L14.0563 5.78976C14.0891 5.09367 13.843 4.43273 13.3648 3.92883C13.1302 3.68045 12.8471 3.48284 12.5331 3.3482C12.2191 3.21355 11.8807 3.14474 11.5391 3.14601C10.3203 3.14601 9.24219 3.96633 8.91875 5.14054L6.90547 12.4296H3.875C3.46016 12.4296 3.125 12.7648 3.125 13.1796V21.7109C3.125 22.1257 3.46016 22.4609 3.875 22.4609H17.968C18.1836 22.4609 18.3945 22.4187 18.5891 22.3343C19.7047 21.8585 20.4242 20.7687 20.4242 19.5593C20.4242 19.264 20.382 18.9734 20.2977 18.6921C20.6914 18.1718 20.9094 17.5343 20.9094 16.871C20.9094 16.5757 20.8672 16.2851 20.7828 16.0038C21.1766 15.4835 21.3945 14.846 21.3945 14.1827C21.3898 13.8874 21.3477 13.5945 21.2633 13.3132ZM4.8125 20.7734V14.1171H6.71094V20.7734H4.8125ZM19.7281 12.4999L19.2148 12.9452L19.5406 13.5405C19.648 13.7366 19.7036 13.9568 19.7023 14.1804C19.7023 14.5671 19.5336 14.9351 19.243 15.1882L18.7297 15.6335L19.0555 16.2288C19.1628 16.4249 19.2185 16.6451 19.2172 16.8687C19.2172 17.2554 19.0484 17.6234 18.7578 17.8765L18.2445 18.3218L18.5703 18.9171C18.6776 19.1132 18.7333 19.3334 18.732 19.557C18.732 20.082 18.4227 20.5554 17.9445 20.771H8.21094V14.0421L10.543 5.59289C10.6031 5.37633 10.7322 5.18527 10.9107 5.04866C11.0891 4.91205 11.3073 4.83735 11.532 4.83586C11.7102 4.83586 11.8859 4.88742 12.0266 4.99289C12.2586 5.16633 12.3828 5.42883 12.3687 5.70773L12.1437 10.3577H19.5125C19.9297 10.6132 20.1875 11.0445 20.1875 11.4921C20.1875 11.8788 20.0188 12.2445 19.7281 12.4999Z" fill="white"/>
</svg>
