<svg width="50" height="51" viewBox="0 0 50 51" fill="none" xmlns="http://www.w3.org/2000/svg">
<g clip-path="url(#clip0_1541:4661)">
<path d="M38.6744 41.6783V38.443V38.4427V38.4424L38.6743 14.1751C38.6743 13.1517 38.2864 12.1824 37.5812 11.4412C37.5758 11.4351 37.5704 11.4289 37.5646 11.4229L34.6566 8.30957C35.5811 7.99307 36.2478 7.11611 36.2478 6.08584C36.2478 4.78984 35.1934 3.73564 33.8975 3.73564H27.3496V2.8502C27.3495 1.5543 26.2953 0.5 24.9993 0.5C23.7034 0.5 22.6491 1.5543 22.6491 2.8502V3.73564H16.1013C14.8053 3.73564 13.751 4.78994 13.751 6.08584C13.751 7.11611 14.4177 7.99307 15.3421 8.30957L12.434 11.4229C12.4283 11.4289 12.4229 11.435 12.4174 11.4412C11.7121 12.1823 11.3242 13.1517 11.3242 14.1751V31.9708C11.3242 32.3754 11.6521 32.7032 12.0566 32.7032C12.4612 32.7032 12.7891 32.3754 12.7891 31.9708V19.761H37.2096V37.7103H12.7891V34.9003C12.7891 34.4957 12.4611 34.1679 12.0566 34.1679C11.6521 34.1679 11.3242 34.4958 11.3242 34.9003L11.3243 43.2963C11.3243 44.3197 11.7123 45.2892 12.4175 46.0303C12.4229 46.0365 12.4283 46.0425 12.434 46.0484L15.8952 49.7541C16.338 50.228 16.964 50.5 17.6127 50.5H32.3857C33.0345 50.5 33.6604 50.2281 34.1032 49.754L37.5646 46.0484C37.5702 46.0425 37.5757 46.0364 37.5811 46.0303C38.2864 45.2892 38.6743 44.3198 38.6743 43.2963V41.6786V41.6785V41.6783H38.6744ZM24.114 2.8502C24.114 2.36201 24.5111 1.96484 24.9993 1.96484C25.4875 1.96484 25.8847 2.36201 25.8847 2.8502V3.73564H24.1139V2.8502H24.114ZM16.1013 5.20059H33.8974C34.3856 5.20059 34.7828 5.59775 34.7828 6.08594C34.7828 6.57412 34.3856 6.97129 33.8974 6.97129H16.1013C15.613 6.97129 15.2158 6.57412 15.2158 6.08594C15.2158 5.59775 15.613 5.20059 16.1013 5.20059ZM13.496 12.4328C13.5074 12.421 13.5184 12.409 13.5289 12.3966L17.2282 8.43613H32.7706L36.4697 12.3964C36.4802 12.4089 36.4913 12.421 36.5026 12.4327C36.9586 12.9027 37.2096 13.5214 37.2096 14.1751V15.0604H12.7891V14.1751C12.7891 13.5215 13.0401 12.9027 13.496 12.4328ZM12.7891 18.2962V16.5254H37.2095V18.2963H12.7891V18.2962ZM37.2096 39.1751V40.946H12.7891V39.1751H37.2096ZM33.0329 48.7541C32.866 48.9327 32.6302 49.0352 32.3858 49.0352H17.6127C17.3684 49.0352 17.1325 48.9327 16.9656 48.7542L15.5739 47.2643H34.4244L33.0329 48.7541ZM36.5026 45.0385C36.4912 45.0502 36.4803 45.0623 36.4697 45.0747L35.7928 45.7994H14.2058L13.5289 45.0748C13.5185 45.0624 13.5074 45.0503 13.496 45.0385C13.0401 44.5688 12.7892 43.9499 12.7892 43.2962V42.4108H37.2097V43.2962C37.2096 43.95 36.9585 44.5688 36.5026 45.0385Z" fill="#53E0F3"/>
<path d="M20.1465 11.6719H29.8535C30.2581 11.6719 30.5859 11.344 30.5859 10.9395C30.5859 10.5349 30.2581 10.207 29.8535 10.207H20.1465C19.7419 10.207 19.4141 10.5349 19.4141 10.9395C19.4141 11.344 19.7419 11.6719 20.1465 11.6719Z" fill="#53E0F3"/>
<path d="M30.7383 35.207C30.7383 35.6116 31.0661 35.9395 31.4707 35.9395H34.7063C35.1109 35.9395 35.4388 35.6116 35.4388 35.207C35.4388 34.8024 35.1109 34.4746 34.7063 34.4746H31.4706C31.0661 34.4746 30.7383 34.8025 30.7383 35.207Z" fill="#53E0F3"/>
<path d="M34.7077 32.7036C35.1123 32.7036 35.4401 32.3758 35.4401 31.9712C35.4401 31.5666 35.1123 31.2388 34.7077 31.2388H33.0898C32.6853 31.2388 32.3574 31.5666 32.3574 31.9712C32.3574 32.3758 32.6853 32.7036 33.0898 32.7036H34.7077Z" fill="#53E0F3"/>
<path d="M19.261 23.8822C19.261 22.5863 18.2067 21.532 16.9108 21.532C15.6148 21.532 14.5605 22.5863 14.5605 23.8822C14.5605 25.1782 15.6149 26.2324 16.9108 26.2324C18.2068 26.2324 19.261 25.1781 19.261 23.8822ZM16.0254 23.8822C16.0254 23.394 16.4226 22.9968 16.9108 22.9968C17.399 22.9968 17.7962 23.394 17.7962 23.8822C17.7962 24.3704 17.399 24.7675 16.9108 24.7675C16.4226 24.7675 16.0254 24.3704 16.0254 23.8822Z" fill="#53E0F3"/>
<path d="M25.2233 21.5666C24.92 21.4697 24.5888 21.5793 24.4038 21.8384L20.3591 27.5007C20.2403 27.667 20.1963 27.8754 20.238 28.0756C20.2796 28.2757 20.403 28.4493 20.5783 28.5545L24.2672 30.7679V35.2068C24.2672 35.5252 24.4729 35.8071 24.7761 35.9043C24.8499 35.9278 24.925 35.9393 24.9996 35.9393C25.2316 35.9392 25.4555 35.8286 25.5957 35.6324L29.6403 29.97C29.7591 29.8037 29.8031 29.5953 29.7614 29.3951C29.7198 29.195 29.5964 29.0214 29.4211 28.9162L25.7322 26.7028V22.2641C25.7322 21.9456 25.5265 21.6638 25.2233 21.5666ZM27.9873 29.7642L25.7322 32.9213V30.3532C25.7322 30.0959 25.5972 29.8575 25.3765 29.7251L22.0123 27.7066L24.2673 24.5495V27.1175C24.2673 27.3748 24.4023 27.6132 24.623 27.7456L27.9873 29.7642Z" fill="#53E0F3"/>
</g>
<defs>
<clipPath id="clip0_1541:4661">
<rect width="50" height="50" fill="white" transform="translate(0 0.5)"/>
</clipPath>
</defs>
</svg>
