<svg width="50" height="51" viewBox="0 0 50 51" fill="none" xmlns="http://www.w3.org/2000/svg">
<g clip-path="url(#clip0_1462:7575)">
<path d="M37.998 11.8249H33.8216V7.70381C33.8216 5.51582 32.0415 3.73564 29.8535 3.73564H27.3503V2.79492C27.3503 1.52949 26.3208 0.5 25.0554 0.5H21.709C20.4436 0.5 19.4141 1.52949 19.4141 2.79492V3.73564H16.9108C14.9731 3.73564 13.3564 5.13213 13.0116 6.97139H12.0573C10.7613 6.97139 9.70703 8.02568 9.70703 9.32158V11.8871C9.70703 12.5148 9.95146 13.1051 10.3954 13.5491L12.6834 15.8371C12.8506 16.0043 12.9427 16.2266 12.9427 16.4631V17.4108V19.1816C12.9427 19.5862 13.2706 19.9141 13.6751 19.9141C14.0796 19.9141 14.4075 19.5862 14.4075 19.1816V17.4108V16.4631V12.5573C14.4075 12.1527 14.0796 11.8249 13.6751 11.8249C13.2706 11.8249 12.9427 12.1527 12.9427 12.5573V14.0248L11.4312 12.5134C11.264 12.3461 11.1719 12.1237 11.1719 11.8872V9.32158C11.1719 8.8334 11.569 8.43623 12.0573 8.43623H13.6751H32.3567V12.5573V15.793V25.5V28.7356V30.3535C32.3567 31.7338 31.2338 32.8567 29.8535 32.8567H17.6433V12.5573C17.6433 12.1527 17.3153 11.8249 16.9108 11.8249C16.5063 11.8249 16.1784 12.1527 16.1784 12.5573V15.0605H16.102C15.6975 15.0605 15.3695 15.3884 15.3695 15.793C15.3695 16.1976 15.6975 16.5254 16.102 16.5254H16.1784V18.2963H16.102C15.6975 18.2963 15.3695 18.6241 15.3695 19.0287C15.3695 19.4333 15.6975 19.7611 16.102 19.7611H16.1784V21.532H16.102C15.6975 21.532 15.3695 21.8599 15.3695 22.2645C15.3695 22.669 15.6975 22.9969 16.102 22.9969H16.1784V24.7676H16.102C15.6975 24.7676 15.3695 25.0954 15.3695 25.5C15.3695 25.9046 15.6975 26.2324 16.102 26.2324H16.1784V28.0032H16.102C15.6975 28.0032 15.3695 28.3311 15.3695 28.7356C15.3695 29.1402 15.6975 29.4681 16.102 29.4681H16.1784V32.7472C15.1544 32.4332 14.4076 31.479 14.4076 30.3535V22.1113C14.4076 21.7067 14.0797 21.3789 13.6752 21.3789C13.2707 21.3789 12.9428 21.7067 12.9428 22.1113V30.3535C12.9428 32.2912 14.3393 33.9079 16.1784 34.2526V36.0924H15.293C13.105 36.0924 11.3249 37.8725 11.3249 40.0604V49.7675C11.3249 50.1721 11.6528 50.4999 12.0573 50.4999H34.707C35.1115 50.4999 35.4395 50.1721 35.4395 49.7675V40.0604C35.4395 37.8725 33.6594 36.0924 31.4714 36.0924H30.5859V34.2526C32.4251 33.9079 33.8216 32.2912 33.8216 30.3535V29.4681H37.998C39.2635 29.4681 40.293 28.4386 40.293 27.1731V14.1198C40.293 12.8544 39.2635 11.8249 37.998 11.8249ZM12.7897 49.0352V47.2644H33.9746V49.0352H12.7897ZM33.9746 40.0605V45.7996H12.7897V40.0605C12.7897 38.6803 13.9127 37.5573 15.293 37.5573H16.9107H29.8535H31.4713C32.8517 37.5573 33.9746 38.6803 33.9746 40.0605ZM17.6433 36.0925V34.3216H29.1211V36.0925H17.6433ZM33.8216 16.5254H35.5436C35.5705 16.5254 35.5924 16.5474 35.5924 16.5742V24.7188C35.5924 24.7456 35.5705 24.7676 35.5436 24.7676H33.8216V16.5254ZM20.8789 2.79492C20.8789 2.33721 21.2513 1.96484 21.709 1.96484H25.0554C25.5131 1.96484 25.8854 2.33721 25.8854 2.79492V3.73564H20.8789V2.79492ZM14.5168 6.97139C14.8307 5.94727 15.7852 5.20049 16.9107 5.20049H20.1465H26.6179H29.8535C30.9791 5.20049 31.9336 5.94717 32.2475 6.97139H14.5168ZM38.8281 27.1731C38.8281 27.6308 38.4558 28.0032 37.998 28.0032H33.8216V26.2324H35.5436C36.3782 26.2324 37.0572 25.5534 37.0572 24.7188V16.5742C37.0572 15.7396 36.3782 15.0605 35.5436 15.0605H33.8216V13.2897H37.998C38.4558 13.2897 38.8281 13.6622 38.8281 14.1198V27.1731Z" fill="#946FDE"/>
<path d="M23.3814 39.3281C22.0855 39.3281 21.0312 40.3825 21.0312 41.6784C21.0312 42.9744 22.0855 44.0286 23.3814 44.0286C24.6773 44.0286 25.7317 42.9743 25.7317 41.6784C25.7317 40.3825 24.6774 39.3281 23.3814 39.3281ZM23.3814 42.5638C22.8933 42.5638 22.4961 42.1666 22.4961 41.6784C22.4961 41.1901 22.8933 40.793 23.3814 40.793C23.8696 40.793 24.2669 41.1901 24.2669 41.6784C24.2669 42.1666 23.8697 42.5638 23.3814 42.5638Z" fill="#946FDE"/>
<path d="M18.53 40.9458H16.9121C16.5076 40.9458 16.1797 41.2736 16.1797 41.6782C16.1797 42.0828 16.5076 42.4106 16.9121 42.4106H18.53C18.9345 42.4106 19.2624 42.0828 19.2624 41.6782C19.2624 41.2736 18.9346 40.9458 18.53 40.9458Z" fill="#946FDE"/>
<path d="M28.2363 40.9458C27.8318 40.9458 27.5039 41.2736 27.5039 41.6782C27.5039 42.0828 27.8318 42.4106 28.2363 42.4106H29.8542C30.2587 42.4106 30.5866 42.0828 30.5866 41.6782C30.5866 41.2736 30.2587 40.9458 29.8542 40.9458H28.2363Z" fill="#946FDE"/>
<path d="M25 16.6782C24.5955 16.6782 24.2676 17.0061 24.2676 17.4106V19.9139H22.5732C20.8312 19.9139 19.4141 21.3311 19.4141 23.0731V25.4998C19.4141 28.5799 21.9199 31.0857 25 31.0857C28.0801 31.0857 30.5859 28.5799 30.5859 25.4998V23.073C30.5859 21.331 29.1687 19.9138 27.4267 19.9138H25.7324V19.4811L26.9454 18.8746C27.3072 18.6937 27.4539 18.2538 27.2729 17.8919C27.092 17.5302 26.6522 17.3836 26.2903 17.5644L25.7324 17.8433V17.4104C25.7324 17.0061 25.4045 16.6782 25 16.6782ZM29.1211 23.073V25.4998C29.1211 27.7723 27.2724 29.6209 25 29.6209C22.7276 29.6209 20.8789 27.7722 20.8789 25.4998V23.073C20.8789 22.1388 21.639 21.3786 22.5732 21.3786H27.4267C28.361 21.3787 29.1211 22.1388 29.1211 23.073Z" fill="#946FDE"/>
</g>
<defs>
<clipPath id="clip0_1462:7575">
<rect width="50" height="50" fill="white" transform="translate(0 0.5)"/>
</clipPath>
</defs>
</svg>
