<svg width="50" height="51" viewBox="0 0 50 51" fill="none" xmlns="http://www.w3.org/2000/svg">
<g clip-path="url(#clip0_1541:3760)">
<path d="M46.0316 3.73564H41.9105V2.85029C41.9106 1.5543 40.8563 0.5 39.5604 0.5C38.2644 0.5 37.2101 1.5543 37.2101 2.85029V3.73564H27.3501V2.85029C27.3501 1.5543 26.2958 0.5 24.9998 0.5C23.7039 0.5 22.6495 1.5543 22.6495 2.85029V3.73564H12.7896V2.85029C12.7896 1.5543 11.7352 0.5 10.4393 0.5C9.14336 0.5 8.08906 1.5543 8.08906 2.85029V3.73564H3.96797C1.77998 3.73564 0 5.51572 0 7.70361V18.7771C0 19.1816 0.32793 19.5096 0.732422 19.5096C1.13691 19.5096 1.46484 19.1816 1.46484 18.7771V13.2897H48.5349V43.2963C48.5349 44.6766 47.4119 45.7994 46.0317 45.7994H3.96797C2.5877 45.7994 1.46484 44.6765 1.46484 43.2963V21.7068C1.46484 21.3023 1.13691 20.9744 0.732422 20.9744C0.32793 20.9744 0 21.3023 0 21.7068V43.2962V46.5319C0 48.72 1.77998 50.5 3.96797 50.5H46.0316C48.2196 50.5 49.9996 48.72 49.9996 46.532V43.2963V7.70371C49.9997 5.51572 48.2196 3.73564 46.0316 3.73564ZM38.6749 2.85029C38.6749 2.36201 39.0721 1.96484 39.5604 1.96484C40.0485 1.96484 40.4457 2.36201 40.4457 2.85029V6.08594C40.4457 6.57412 40.0485 6.97129 39.5604 6.97129C39.0721 6.97129 38.6749 6.57412 38.6749 6.08594V2.85029ZM24.1144 2.85029C24.1144 2.36201 24.5115 1.96484 24.9998 1.96484C25.4881 1.96484 25.8853 2.36201 25.8853 2.85029V6.08594C25.8853 6.57412 25.4881 6.97129 24.9998 6.97129C24.5116 6.97129 24.1144 6.57412 24.1144 6.08594V2.85029ZM9.55391 2.85029C9.55391 2.36201 9.95107 1.96484 10.4393 1.96484C10.9275 1.96484 11.3247 2.36201 11.3247 2.85029V6.08594C11.3247 6.57412 10.9275 6.97129 10.4393 6.97129C9.95107 6.97129 9.55391 6.57412 9.55391 6.08594V2.85029ZM1.46484 11.8249V7.70371C1.46484 6.32344 2.58779 5.20059 3.96797 5.20059H8.08906V6.08594C8.08906 7.38184 9.14336 8.43613 10.4393 8.43613C11.7353 8.43613 12.7896 7.38184 12.7896 6.08594V5.20049H22.6495V6.08594C22.6495 7.38184 23.7038 8.43613 24.9998 8.43613C26.2958 8.43613 27.3501 7.38184 27.3501 6.08594V5.20049H37.2101V6.08594C37.2101 7.38184 38.2644 8.43613 39.5604 8.43613C40.8563 8.43613 41.9105 7.38184 41.9105 6.08594V5.20049H46.0316C47.4119 5.20049 48.5348 6.32344 48.5348 7.70361V11.8248H1.46484V11.8249ZM46.0316 49.0352H3.96797C2.5877 49.0352 1.46484 47.9123 1.46484 46.532V46.3724C2.14824 46.9295 3.01963 47.2644 3.96797 47.2644H46.0316C46.9801 47.2644 47.8515 46.9295 48.5348 46.3724V46.532C48.5349 47.9123 47.4119 49.0352 46.0316 49.0352Z" fill="#94CF65"/>
<path d="M8.08984 43.2964C8.08984 43.7009 8.41777 44.0288 8.82227 44.0288H41.179C41.5835 44.0288 41.9114 43.7009 41.9114 43.2964C41.9114 42.8919 41.5835 42.564 41.179 42.564H8.82227C8.41768 42.564 8.08984 42.8919 8.08984 43.2964Z" fill="#94CF65"/>
<path d="M6.46875 31.9712V38.4426C6.46875 38.8471 6.79668 39.175 7.20117 39.175H13.6726C14.0771 39.175 14.405 38.8471 14.405 38.4426V31.9712C14.405 31.5667 14.0771 31.2388 13.6726 31.2388H7.20117C6.79668 31.2388 6.46875 31.5667 6.46875 31.9712ZM7.93359 32.7036H12.9401V37.7102H7.93359V32.7036Z" fill="#94CF65"/>
<path d="M16.1797 31.9712V38.4426C16.1797 38.8471 16.5076 39.175 16.9121 39.175H23.3835C23.788 39.175 24.1159 38.8471 24.1159 38.4426V31.9712C24.1159 31.5667 23.788 31.2388 23.3835 31.2388H16.9121C16.5075 31.2388 16.1797 31.5667 16.1797 31.9712ZM17.6445 32.7036H22.6511V37.7102H17.6445V32.7036Z" fill="#94CF65"/>
<path d="M25.8867 31.9712V38.4426C25.8867 38.8471 26.2146 39.175 26.6191 39.175H33.0905C33.495 39.175 33.823 38.8471 33.823 38.4426V31.9712C33.823 31.5667 33.495 31.2388 33.0905 31.2388H26.6191C26.2146 31.2388 25.8867 31.5667 25.8867 31.9712ZM27.3516 32.7036H32.3581V37.7102H27.3516V32.7036Z" fill="#94CF65"/>
<path d="M35.5938 22.2646V28.736C35.5938 29.1405 35.9217 29.4685 36.3262 29.4685H42.7976C43.2021 29.4685 43.53 29.1405 43.53 28.736V22.2646C43.53 21.8602 43.2021 21.5322 42.7976 21.5322H36.3262C35.9217 21.5322 35.5938 21.8602 35.5938 22.2646ZM37.0586 22.9971H42.0651V28.0036H37.0586V22.9971Z" fill="#94CF65"/>
<path d="M35.5938 38.4426C35.5938 38.8471 35.9217 39.175 36.3262 39.175H42.7976C43.2021 39.175 43.53 38.8471 43.53 38.4426V31.9712C43.53 31.5667 43.2021 31.2388 42.7976 31.2388H36.3262C35.9217 31.2388 35.5938 31.5667 35.5938 31.9712V38.4426ZM37.0586 32.7037H42.0651V37.7103H37.0586V32.7037Z" fill="#94CF65"/>
<path d="M25.7305 17.4108V15.793C25.7305 15.3885 25.4025 15.0605 24.998 15.0605C24.5936 15.0605 24.2656 15.3885 24.2656 15.793V17.4107C24.2656 17.8152 24.5936 18.1432 24.998 18.1432C25.4025 18.1433 25.7305 17.8153 25.7305 17.4108Z" fill="#94CF65"/>
<path d="M32.2031 17.4108V15.793C32.2031 15.3885 31.8752 15.0605 31.4707 15.0605C31.0662 15.0605 30.7383 15.3885 30.7383 15.793V17.4107C30.7383 17.8152 31.0662 18.1432 31.4707 18.1432C31.8752 18.1432 32.2031 17.8153 32.2031 17.4108Z" fill="#94CF65"/>
<path d="M38.6758 17.4108V15.793C38.6758 15.3885 38.3479 15.0605 37.9434 15.0605C37.5389 15.0605 37.2109 15.3885 37.2109 15.793V17.4107C37.2109 17.8152 37.5389 18.1432 37.9434 18.1432C38.3479 18.1433 38.6758 17.8153 38.6758 17.4108Z" fill="#94CF65"/>
<path d="M45.1445 17.4108V15.793C45.1445 15.3885 44.8166 15.0605 44.4121 15.0605C44.0076 15.0605 43.6797 15.3885 43.6797 15.793V17.4107C43.6797 17.8152 44.0076 18.1432 44.4121 18.1432C44.8166 18.1433 45.1445 17.8153 45.1445 17.4108Z" fill="#94CF65"/>
<path d="M18.5293 18.1433C18.9338 18.1433 19.2617 17.8153 19.2617 17.4108V15.793C19.2617 15.3885 18.9338 15.0605 18.5293 15.0605C18.1248 15.0605 17.7969 15.3885 17.7969 15.793V17.4107C17.7969 17.8153 18.1248 18.1433 18.5293 18.1433Z" fill="#94CF65"/>
<path d="M12.7891 17.4108V15.793C12.7891 15.3885 12.4611 15.0605 12.0566 15.0605C11.6521 15.0605 11.3242 15.3885 11.3242 15.793V17.4107C11.3242 17.8152 11.6521 18.1432 12.0566 18.1432C12.4611 18.1432 12.7891 17.8153 12.7891 17.4108Z" fill="#94CF65"/>
<path d="M6.32031 17.4108V15.793C6.32031 15.3885 5.99238 15.0605 5.58789 15.0605C5.1834 15.0605 4.85547 15.3885 4.85547 15.793V17.4107C4.85547 17.8152 5.1834 18.1432 5.58789 18.1432C5.99238 18.1432 6.32031 17.8153 6.32031 17.4108Z" fill="#94CF65"/>
<path d="M9.23855 24.9824C8.95252 24.6963 8.48875 24.6963 8.20281 24.9824C7.91677 25.2684 7.91677 25.7322 8.20281 26.0181L9.34675 27.162C9.48972 27.305 9.67722 27.3766 9.86463 27.3766C10.052 27.3766 10.2395 27.3051 10.3825 27.162L12.6705 24.8741C12.9565 24.588 12.9565 24.1242 12.6705 23.8383C12.3845 23.5523 11.9207 23.5523 11.6347 23.8383L9.86472 25.6083L9.23855 24.9824Z" fill="#94CF65"/>
<path d="M17.9137 26.0181L19.0577 27.162C19.2007 27.305 19.3882 27.3766 19.5756 27.3766C19.763 27.3766 19.9505 27.3051 20.0934 27.162L22.3814 24.8741C22.6675 24.588 22.6675 24.1242 22.3814 23.8383C22.0954 23.5523 21.6316 23.5523 21.3457 23.8383L19.5756 25.6083L18.9495 24.9823C18.6635 24.6962 18.1997 24.6962 17.9137 24.9823C17.6277 25.2684 17.6277 25.7322 17.9137 26.0181Z" fill="#94CF65"/>
<path d="M28.6565 24.9824C28.3705 24.6963 27.9067 24.6963 27.6208 24.9824C27.3347 25.2684 27.3347 25.7322 27.6208 26.0181L28.7647 27.162C28.9077 27.305 29.0952 27.3766 29.2826 27.3766C29.47 27.3766 29.6575 27.3051 29.8005 27.162L32.0885 24.8741C32.3745 24.588 32.3745 24.1242 32.0885 23.8383C31.8024 23.5523 31.3387 23.5523 31.0527 23.8383L29.2827 25.6083L28.6565 24.9824Z" fill="#94CF65"/>
</g>
<defs>
<clipPath id="clip0_1541:3760">
<rect width="50" height="50" fill="white" transform="translate(0 0.5)"/>
</clipPath>
</defs>
</svg>
