<svg width="50" height="51" viewBox="0 0 50 51" fill="none" xmlns="http://www.w3.org/2000/svg">
<g clip-path="url(#clip0_1541:922)">
<path d="M49.2676 16.6785C45.47 16.6785 41.9562 17.5331 39.1063 19.15C36.4343 20.6659 34.4666 22.789 33.368 25.3268C30.9915 23.9279 28.0489 23.1498 25.0004 23.1498C22.7749 23.1498 20.6431 23.5478 18.719 24.3092L19.4412 18.052L19.9957 13.2469C21.3666 13.1176 22.4175 12.7665 23.2207 12.3284L24.4306 13.8265C24.6784 14.1333 25.1246 14.189 25.4399 13.9523L31.9112 9.09886C32.081 8.97142 32.1873 8.7766 32.2023 8.56478C32.2173 8.35307 32.1397 8.14516 31.9896 7.99497L24.7094 0.714808C24.5405 0.545865 24.2997 0.470378 24.0641 0.511491C23.8291 0.553092 18.3221 1.58657 15.514 7.24029C14.9253 7.73521 12.4541 9.9009 9.52579 13.7266C6.49732 17.6829 2.40042 24.2352 0.0800418 32.9828C-0.10892 33.6952 0.0402964 34.4387 0.489508 35.0226C0.937646 35.6052 1.61635 35.9394 2.3513 35.9394H3.67471C4.27519 36.4968 6.04479 38.028 8.87707 39.5579C8.98772 39.6176 9.10695 39.6459 9.22453 39.6459C9.48497 39.6459 9.73712 39.5067 9.86954 39.2616C10.0618 38.9056 9.92911 38.4614 9.57325 38.2691C7.9807 37.4089 6.73853 36.5426 5.88024 35.8777C6.13844 35.7646 6.31901 35.507 6.31901 35.207C6.31901 34.8025 5.99108 34.4746 5.5866 34.4746H3.96875H2.3512C2.07454 34.4746 1.81908 34.3489 1.65043 34.1295C1.4807 33.909 1.42445 33.628 1.49584 33.3584C3.74844 24.8664 7.72133 18.5017 10.6575 14.6579C10.9282 14.3036 11.1948 13.9647 11.457 13.6391L17.8199 19.3222L17.1611 25.0301C16.9489 25.1437 16.7389 25.2603 16.5337 25.3838C16.187 25.5922 16.0749 26.0421 16.2833 26.3888C16.4918 26.7356 16.9417 26.8477 17.2884 26.6392C19.4596 25.3339 22.1984 24.6148 25.0003 24.6148C28.5406 24.6148 31.906 25.7492 34.2334 27.7271C34.3711 27.8442 34.5397 27.9014 34.7073 27.9014C34.9148 27.9014 35.1209 27.8137 35.2658 27.6432C35.5278 27.335 35.4902 26.8728 35.182 26.6109C34.9974 26.454 34.8064 26.3023 34.6106 26.155C36.5184 21.4415 41.873 18.3651 48.5351 18.1551V49.035H44.8553C40.859 49.035 37.2138 45.7179 35.246 40.3365C36.7004 39.44 38.0086 38.3425 39.1589 37.0518C39.9756 38.4037 40.4461 39.987 40.4461 41.6783C40.4461 42.0829 40.7739 42.4107 41.1785 42.4107C41.5831 42.4107 41.9109 42.0829 41.9109 41.6783C41.9109 39.3531 41.1465 37.2031 39.8561 35.466C39.8283 35.4193 39.7952 35.3753 39.7566 35.3349C37.8467 32.8464 34.8437 31.2389 31.4716 31.2389H28.236C27.8315 31.2389 27.5036 31.5668 27.5036 31.9713C27.5036 32.3759 27.8315 32.7038 28.236 32.7038H31.4716C34.1909 32.7038 36.6314 33.9198 38.2786 35.8362C37.0582 37.2607 35.6481 38.432 34.0541 39.3492C34.02 39.3646 33.9881 39.3831 33.9575 39.4032C30.6703 41.2651 26.6078 42.0558 21.8104 41.7562C18.5126 41.55 15.308 40.8107 12.2857 39.5588C11.912 39.4036 11.4836 39.5815 11.3288 39.9552C11.174 40.3289 11.3514 40.7573 11.7252 40.9121C14.8971 42.2261 18.2595 43.0018 21.719 43.2181C22.3999 43.2607 23.0681 43.2819 23.7244 43.2819C26.8892 43.2819 29.7623 42.7876 32.2864 41.8066C32.8593 41.584 33.4149 41.3355 33.9532 41.0625C36.1606 46.9068 40.2824 50.4997 44.8553 50.4997H49.2676C49.6721 50.4997 50 50.1718 50 49.7673V17.4109C50 17.0063 49.672 16.6785 49.2676 16.6785ZM23.9624 2.03959L30.3565 8.43373L25.1261 12.3565L24.4139 11.4747C25.4162 10.5419 25.6878 9.58596 25.708 9.51057C25.8122 9.11966 25.5809 8.71439 25.19 8.61009C24.7993 8.50629 24.399 8.73431 24.2948 9.12512C24.2774 9.1846 24.017 10.0165 22.9932 10.7433C22.9689 10.7585 22.9451 10.7749 22.9224 10.7933C22.9222 10.7934 22.9221 10.7936 22.922 10.7937C22.2313 11.264 21.2102 11.6806 19.7137 11.8007L16.9486 7.65308C19.0599 3.64601 22.7977 2.35424 23.9624 2.03959ZM12.3927 12.5106C13.9423 10.6984 15.2372 9.45354 15.955 8.80335L18.5797 12.7403L18.0256 17.5415L12.3927 12.5106Z" fill="#39B3F9"/>
</g>
<defs>
<clipPath id="clip0_1541:922">
<rect width="50" height="50" fill="white" transform="translate(0 0.5)"/>
</clipPath>
</defs>
</svg>
