<svg width="50" height="51" viewBox="0 0 50 51" fill="none" xmlns="http://www.w3.org/2000/svg">
<g clip-path="url(#clip0_1541:810)">
<path d="M24.7675 33.1064C23.3675 33.1064 22.2285 34.2454 22.2285 35.6454C22.2285 37.0454 23.3676 38.1844 24.7675 38.1844C26.1674 38.1844 27.3065 37.0454 27.3065 35.6454C27.3065 34.2454 26.1676 33.1064 24.7675 33.1064ZM24.7675 36.2314C24.4443 36.2314 24.1815 35.9686 24.1815 35.6454C24.1815 35.3223 24.4443 35.0595 24.7675 35.0595C25.0906 35.0595 25.3534 35.3223 25.3534 35.6454C25.3534 35.9686 25.0906 36.2314 24.7675 36.2314Z" fill="#FFDB5E"/>
<path d="M32.6045 29.8702C32.4228 29.6886 32.1709 29.584 31.9141 29.584C31.6572 29.584 31.4053 29.6885 31.2236 29.8702C31.041 30.0518 30.9375 30.3037 30.9375 30.5605C30.9375 30.8175 31.041 31.0694 31.2236 31.251C31.4053 31.4327 31.6572 31.5371 31.9141 31.5371C32.1709 31.5371 32.4228 31.4327 32.6045 31.251C32.7861 31.0694 32.8906 30.8175 32.8906 30.5605C32.8906 30.3037 32.7861 30.0518 32.6045 29.8702Z" fill="#FFDB5E"/>
<path d="M45.1159 14.5615H44.0631L30.2882 0.786552C29.9068 0.405204 29.2884 0.405204 28.9071 0.786552L25.3782 4.31556L11.2646 0.533818C10.7436 0.394071 10.208 0.703349 10.0685 1.22434L6.49502 14.5615H4.10146C1.83994 14.5615 0 16.4013 0 18.6629C0 18.7171 0.00205078 18.7709 0.00410156 18.8246C0.00185547 18.8515 0 18.8784 0 18.9059V45.6176C0 48.3098 2.19043 50.5002 4.88271 50.5002H39.8426C39.8577 50.5002 39.8726 50.4992 39.8877 50.4991H45.1158C47.8081 50.4991 49.9984 48.3087 49.9984 45.6163V19.4441C49.9985 16.7517 47.8082 14.5615 45.1159 14.5615ZM44.2435 16.5145H45.1159C46.7313 16.5145 48.0455 17.8287 48.0455 19.4441V27.2705C48.0455 28.5468 47.0071 29.5851 45.731 29.5851H44.7253V25.6939C44.7253 23.0356 42.5896 20.8682 39.9441 20.8137L44.2435 16.5145ZM26.3606 6.09524C26.3607 6.09515 26.3608 6.09495 26.3609 6.09485L29.5978 2.85804L42.3679 15.6282L37.2165 20.7795H35.43L37.7667 18.4427C38.148 18.0614 38.148 17.443 37.7667 17.0616C36.9762 16.2711 36.9762 14.985 37.7667 14.1945C38.148 13.8131 38.148 13.1948 37.7667 12.8133L32.4124 7.45921C32.0311 7.07786 31.4127 7.07786 31.0312 7.45921C30.2407 8.24983 28.9545 8.24983 28.1641 7.45921C27.7827 7.07786 27.1643 7.07786 26.783 7.45921L13.4627 20.7796H11.6762L26.3606 6.09524ZM23.4867 17.1107C21.2574 17.1107 19.3896 18.6848 18.9341 20.7796H16.2246L27.5592 9.44505C28.8103 10.1908 30.3851 10.1908 31.6361 9.44505L35.7808 13.5897C35.0352 14.8407 35.0352 16.4157 35.7808 17.6666L32.6678 20.7796H28.0394C27.5838 18.6847 25.7161 17.1107 23.4867 17.1107ZM26.0049 20.7796H20.9689C21.3652 19.776 22.3442 19.0638 23.4869 19.0638C24.6296 19.0638 25.6085 19.776 26.0049 20.7796ZM10.644 19.0496L13.2302 9.39798C13.9393 9.4094 14.6446 9.22835 15.2764 8.86341C15.9082 8.49866 16.4166 7.98001 16.7624 7.35862L21.1574 8.53626L14.7794 14.9143L10.644 19.0496ZM11.7023 2.67308L23.7835 5.91018L22.7521 6.94163L16.4406 5.25042C16.1903 5.18333 15.9238 5.21849 15.6996 5.34798C15.4753 5.47747 15.3116 5.69075 15.2446 5.94095C15.1044 6.46399 14.7689 6.9012 14.3 7.172C13.831 7.4428 13.2846 7.51468 12.7614 7.37454C12.2406 7.23489 11.705 7.54407 11.5654 8.06507L8.15 20.8113H6.84219L11.7023 2.67308ZM4.10146 16.5145H5.97148L4.82012 20.8113H4.10137C2.9167 20.8113 1.95303 19.8475 1.95303 18.6629C1.95312 17.4783 2.91699 16.5145 4.10146 16.5145ZM48.0455 45.6163C48.0455 47.2318 46.7313 48.5459 45.1159 48.5459H43.747C44.3609 47.7295 44.7253 46.7154 44.7253 45.6175V41.6941H45.3112C46.3312 41.6941 47.2752 41.3657 48.0455 40.8104V45.6163ZM48.0455 37.0068C48.0455 38.5145 46.8188 39.741 45.3112 39.741H24.804C22.5425 39.741 20.7025 37.9012 20.7025 35.6396C20.7025 33.378 22.5424 31.5381 24.804 31.5381H27.7636C28.3029 31.5381 28.7401 31.1008 28.7401 30.5616C28.7401 30.0223 28.3029 29.585 27.7636 29.585H24.804C21.4655 29.585 18.7495 32.301 18.7495 35.6395C18.7495 38.978 21.4655 41.694 24.804 41.694H42.7723V45.6174C42.7723 47.2177 41.4823 48.5227 39.8878 48.547H6.64043V37.55C6.64043 37.0108 6.20322 36.5735 5.66387 36.5735C5.12451 36.5735 4.6873 37.0108 4.6873 37.55V48.5399C3.1627 48.439 1.95303 47.1672 1.95303 45.6176V22.1547C2.57832 22.5408 3.31416 22.7643 4.10137 22.7643H39.8425C41.4579 22.7643 42.7721 24.0785 42.7721 25.6939V29.5851H35.7112C35.1719 29.5851 34.7347 30.0224 34.7347 30.5616C34.7347 31.1009 35.1719 31.5382 35.7112 31.5382H45.731C46.5838 31.5382 47.3783 31.2858 48.0455 30.8532V37.0068Z" fill="#FFDB5E"/>
<path d="M6.35449 33.0505C6.17285 32.869 5.9209 32.7644 5.66406 32.7644C5.40723 32.7644 5.15527 32.8689 4.97363 33.0505C4.79199 33.2322 4.6875 33.4841 4.6875 33.741C4.6875 33.9978 4.79199 34.2498 4.97363 34.4314C5.15527 34.613 5.40723 34.7175 5.66406 34.7175C5.9209 34.7175 6.17285 34.613 6.35449 34.4314C6.53613 34.2498 6.64062 33.9978 6.64062 33.741C6.64052 33.4841 6.53603 33.2322 6.35449 33.0505Z" fill="#FFDB5E"/>
</g>
<defs>
<clipPath id="clip0_1541:810">
<rect width="50" height="50" fill="white" transform="translate(0 0.5)"/>
</clipPath>
</defs>
</svg>
