<svg width="50" height="51" viewBox="0 0 50 51" fill="none" xmlns="http://www.w3.org/2000/svg">
<g clip-path="url(#clip0_1541:4564)">
<path d="M46.0337 3.73564H33.8234V2.79492C33.8234 1.52949 32.7939 0.5 31.5285 0.5H18.4752C17.2098 0.5 16.1803 1.52949 16.1803 2.79492V3.73564H3.97002C1.78203 3.73564 0.00195312 5.51572 0.00195312 7.70361V43.2962V46.5319C0.00195312 48.7199 1.78203 50.5 3.97002 50.5H7.16982C7.57441 50.5 7.90225 50.1721 7.90225 49.7676C7.90225 49.3631 7.57441 49.0352 7.16982 49.0352H3.97002C2.58975 49.0352 1.4668 47.9122 1.4668 46.532V46.3724C2.1502 46.9295 3.02158 47.2644 3.97002 47.2644H11.3268V49.0352H10.0995C9.69492 49.0352 9.36709 49.3631 9.36709 49.7676C9.36709 50.1721 9.69492 50.5 10.0995 50.5H46.0337C48.2217 50.5 50.0018 48.7199 50.0018 46.532V43.2963V7.70371C50.0018 5.51572 48.2218 3.73564 46.0337 3.73564ZM46.0337 5.20049C47.414 5.20049 48.5369 6.32344 48.5369 7.70361V43.2962C48.5369 44.6765 47.414 45.7993 46.0337 45.7993H32.2056V44.0285H44.4159C45.7119 44.0285 46.7662 42.9742 46.7662 41.6782V9.32168C46.7662 8.02568 45.7118 6.97139 44.4159 6.97139H33.8234V6.08594V5.20049H46.0337ZM18.5296 47.2643H18.5306C18.5306 47.2643 18.5312 47.2643 18.5315 47.2643H31.4724H31.4733C31.4733 47.2643 31.4739 47.2643 31.4743 47.2643H33.9765V49.0352H16.0272V47.2643H18.5296ZM27.3955 8.58926H22.6082C22.9222 7.56514 23.8764 6.81836 25.0019 6.81836C26.1273 6.81836 27.0815 7.56514 27.3955 8.58926ZM31.5285 10.0541C31.8212 10.0541 32.101 9.99844 32.3586 9.89814V10.9395C32.3586 11.4276 31.9614 11.8249 31.4732 11.8249H18.5305C18.0423 11.8249 17.6451 11.4277 17.6451 10.9395V9.89805C17.9027 9.99834 18.1825 10.054 18.4752 10.054H31.5285V10.0541ZM18.5305 13.2897H31.4731C32.7691 13.2897 33.8233 12.2354 33.8233 10.9395V8.43623H44.4159C44.9042 8.43623 45.3014 8.8334 45.3014 9.32168V41.6784C45.3014 42.1666 44.9042 42.5639 44.4159 42.5639H32.2057V40.0605C32.2057 38.7646 31.1514 37.7103 29.8555 37.7103H20.1484C18.8524 37.7103 17.7982 38.7646 17.7982 40.0605V42.5638H5.58779C5.09951 42.5638 4.70234 42.1666 4.70234 41.6783V9.32168C4.70234 8.8334 5.09951 8.43623 5.58779 8.43623H16.1803V10.9395C16.1803 12.2354 17.2346 13.2897 18.5305 13.2897ZM19.2629 40.0605C19.2629 39.5723 19.6601 39.1751 20.1482 39.1751H29.8553C30.3435 39.1751 30.7406 39.5723 30.7406 40.0605V45.7994H19.2629V40.0605ZM35.4413 47.2643H37.2121V49.0352H35.4413V47.2643ZM17.6451 2.79492C17.6451 2.33721 18.0175 1.96484 18.4752 1.96484H31.5285C31.9861 1.96484 32.3586 2.33721 32.3586 2.79492V6.08594V7.75908C32.3586 8.2168 31.9861 8.58916 31.5285 8.58916H28.901C28.7979 8.03906 28.5814 7.52852 28.2761 7.0832L30.3733 4.98594C30.6594 4.6999 30.6594 4.23613 30.3733 3.9502C30.0872 3.66416 29.6235 3.66416 29.3375 3.9502L27.2403 6.04736C26.6026 5.61006 25.8317 5.35352 25.0019 5.35352C23.0642 5.35352 21.4475 6.75 21.1027 8.58916H18.4752C18.0175 8.58916 17.6451 8.2168 17.6451 7.75908V6.08594V2.79492ZM1.4668 43.2963V7.70371C1.4668 6.32344 2.58975 5.20059 3.97002 5.20059H16.1803V6.08594V6.97129H5.58779C4.2918 6.97129 3.2375 8.02559 3.2375 9.32158V41.6783C3.2375 42.9743 4.29189 44.0286 5.58779 44.0286H17.798V45.7994H3.96992C2.58975 45.7994 1.4668 44.6766 1.4668 43.2963ZM12.7916 47.2643H14.5624V49.0352H12.7916V47.2643ZM46.0337 49.0352H38.677V47.2643H46.0337C46.9821 47.2643 47.8535 46.9294 48.5369 46.3723V46.5319C48.5369 47.9122 47.414 49.0352 46.0337 49.0352Z" fill="#F78AAA"/>
<path d="M41.1797 11.6719H42.065V12.5573C42.065 12.9618 42.3929 13.2898 42.7975 13.2898C43.2021 13.2898 43.5299 12.9618 43.5299 12.5573V10.9395C43.5299 10.535 43.2021 10.207 42.7975 10.207H41.1797C40.7751 10.207 40.4473 10.535 40.4473 10.9395C40.4473 11.3439 40.7751 11.6719 41.1797 11.6719Z" fill="#F78AAA"/>
<path d="M8.82285 10.207H7.20508C6.80049 10.207 6.47266 10.535 6.47266 10.9395V12.5573C6.47266 12.9618 6.80049 13.2898 7.20508 13.2898C7.60967 13.2898 7.9375 12.9618 7.9375 12.5573V11.6719H8.82285C9.22744 11.6719 9.55527 11.3439 9.55527 10.9395C9.55527 10.535 9.22744 10.207 8.82285 10.207Z" fill="#F78AAA"/>
<path d="M8.82285 39.3278H7.9375V38.4424C7.9375 38.0379 7.60967 37.71 7.20508 37.71C6.80049 37.71 6.47266 38.0379 6.47266 38.4424V40.0603C6.47266 40.4647 6.80049 40.7927 7.20508 40.7927H8.82285C9.22744 40.7927 9.55527 40.4647 9.55527 40.0603C9.55527 39.6558 9.22744 39.3278 8.82285 39.3278Z" fill="#F78AAA"/>
<path d="M41.1797 40.7927H42.7975C43.2021 40.7927 43.5299 40.4647 43.5299 40.0603V38.4424C43.5299 38.0379 43.2021 37.71 42.7975 37.71C42.3929 37.71 42.065 38.0379 42.065 38.4424V39.3278H41.1797C40.7751 39.3278 40.4473 39.6558 40.4473 40.0603C40.4473 40.4647 40.7751 40.7927 41.1797 40.7927Z" fill="#F78AAA"/>
</g>
<defs>
<clipPath id="clip0_1541:4564">
<rect width="50" height="50" fill="white" transform="translate(0 0.5)"/>
</clipPath>
</defs>
</svg>
