<svg width="21" height="21" viewBox="0 0 21 21" fill="none" xmlns="http://www.w3.org/2000/svg">
<path d="M12.3398 7.10889V3.10889C12.3398 2.31324 12.0238 1.55018 11.4612 0.987566C10.8986 0.424957 10.1355 0.108887 9.33984 0.108887L5.33984 9.10889V20.1089H16.6198C17.1022 20.1143 17.5702 19.9453 17.9377 19.6329C18.3053 19.3205 18.5475 18.8858 18.6198 18.4089L19.9998 9.40889C20.0434 9.12224 20.024 8.82957 19.9432 8.55114C19.8623 8.27271 19.7219 8.01518 19.5317 7.7964C19.3415 7.57762 19.1059 7.40282 18.8414 7.2841C18.5769 7.16539 18.2898 7.1056 17.9998 7.10889H12.3398ZM5.33984 20.1089H2.33984C1.80941 20.1089 1.3007 19.8982 0.92563 19.5231C0.550557 19.148 0.339844 18.6393 0.339844 18.1089V11.1089C0.339844 10.5785 0.550557 10.0697 0.92563 9.69467C1.3007 9.3196 1.80941 9.10889 2.33984 9.10889H5.33984" fill="#94CF65"/>
</svg>
