<svg width="23" height="23" viewBox="0 0 23 23" fill="none" xmlns="http://www.w3.org/2000/svg">
<path d="M9.36624 14.1091V18.1091C9.36624 18.9047 9.68231 19.6678 10.2449 20.2304C10.8075 20.793 11.5706 21.1091 12.3662 21.1091L16.3662 12.1091V1.10907H5.08624C4.60391 1.10361 4.13586 1.27266 3.76834 1.58506C3.40081 1.89746 3.15856 2.33216 3.08624 2.80907L1.70624 11.8091C1.66273 12.0957 1.68207 12.3884 1.7629 12.6668C1.84374 12.9452 1.98414 13.2028 2.17438 13.4216C2.36463 13.6403 2.60016 13.8151 2.86467 13.9338C3.12918 14.0526 3.41633 14.1123 3.70624 14.1091H9.36624ZM16.3662 1.10907H19.0362C19.6022 1.09906 20.1521 1.2972 20.5817 1.66588C21.0112 2.03457 21.2904 2.54812 21.3662 3.10907V10.1091C21.2904 10.67 21.0112 11.1836 20.5817 11.5522C20.1521 11.9209 19.6022 12.1191 19.0362 12.1091H16.3662" fill="#F78AAA"/>
<path d="M16.3662 1.10907H19.0362C19.6022 1.09906 20.1521 1.2972 20.5817 1.66588C21.0112 2.03457 21.2904 2.54812 21.3662 3.10907V10.1091C21.2904 10.67 21.0112 11.1836 20.5817 11.5522C20.1521 11.9209 19.6022 12.1191 19.0362 12.1091H16.3662M9.36624 14.1091V18.1091C9.36624 18.9047 9.68231 19.6678 10.2449 20.2304C10.8075 20.793 11.5706 21.1091 12.3662 21.1091L16.3662 12.1091V1.10907H5.08624C4.60391 1.10361 4.13586 1.27266 3.76834 1.58506C3.40081 1.89746 3.15856 2.33216 3.08624 2.80907L1.70624 11.8091C1.66273 12.0957 1.68207 12.3884 1.7629 12.6668C1.84374 12.9452 1.98414 13.2028 2.17438 13.4216C2.36463 13.6403 2.60016 13.8151 2.86467 13.9338C3.12918 14.0526 3.41633 14.1123 3.70624 14.1091H9.36624Z" stroke="white" stroke-width="2" stroke-linecap="round" stroke-linejoin="round"/>
</svg>
