<svg width="25" height="25" viewBox="0 0 25 25" fill="none" xmlns="http://www.w3.org/2000/svg">
<path fill-rule="evenodd" clip-rule="evenodd" d="M12.5156 2.50391C18.0296 2.50391 22.5156 6.98991 22.5156 12.5039C22.5156 18.0179 18.0296 22.5039 12.5156 22.5039C7.00163 22.5039 2.51562 18.0179 2.51562 12.5039C2.51562 6.98991 7.00163 2.50391 12.5156 2.50391ZM12.5156 4.00391C7.82863 4.00391 4.01562 7.81691 4.01562 12.5039C4.01562 17.1909 7.82863 21.0039 12.5156 21.0039C17.2026 21.0039 21.0156 17.1909 21.0156 12.5039C21.0156 7.81691 17.2026 4.00391 12.5156 4.00391ZM12.1768 7.59931C12.5918 7.59931 12.9268 7.93531 12.9268 8.34931V12.7713L16.3318 14.8013C16.6868 15.0143 16.8038 15.4743 16.5918 15.8303C16.4508 16.0653 16.2018 16.1963 15.9468 16.1963C15.8158 16.1963 15.6838 16.1623 15.5628 16.0913L11.7928 13.8423C11.5668 13.7063 11.4268 13.4613 11.4268 13.1973V8.34931C11.4268 7.93531 11.7628 7.59931 12.1768 7.59931Z" fill="#94CF65"/>
</svg>
