<svg width="20" height="20" viewBox="0 0 20 20" fill="none" xmlns="http://www.w3.org/2000/svg">
<path d="M15.856 0.916504C18.1441 0.916504 19.998 2.77117 19.998 5.05895L20 7.76195C20.0003 8.17638 19.6644 8.5125 19.25 8.5125L19.106 8.51929C18.3481 8.59112 17.76 9.22457 17.76 10.0015C17.76 10.8264 18.4243 11.4905 19.25 11.4905C19.6642 11.4905 20 11.8263 20 12.2405V14.9405C20 17.229 18.1459 19.0835 15.857 19.0835H4.142C1.85391 19.0835 0 17.2288 0 14.9405V12.2405C0 11.8263 0.335786 11.4905 0.75 11.4905C1.57479 11.4905 2.239 10.8263 2.239 10.0015C2.239 9.20231 1.60177 8.5995 0.75 8.5995C0.335681 8.5995 0 8.26355 0 7.84924L0.001 5.0595C0.001 2.77129 1.85579 0.916504 4.144 0.916504H15.856ZM15.856 2.4165H4.144C2.68421 2.4165 1.501 3.59972 1.501 5.05977L1.4997 7.1887L1.60271 7.21466C2.78975 7.54524 3.6605 8.55551 3.73397 9.8266L3.739 10.0015C3.739 11.3595 2.83768 12.5033 1.59949 12.8685L1.4997 12.8937L1.5 14.9405C1.5 16.3444 2.59326 17.4921 3.97487 17.5783L4.142 17.5835H15.857C17.3174 17.5835 18.5 16.4007 18.5 14.9405L18.4997 12.8937L18.4001 12.8685C17.2153 12.5193 16.339 11.4577 16.2651 10.1774L16.26 10.0015C16.26 8.64276 17.1613 7.49943 18.4 7.13442L18.4997 7.1077L18.498 5.0595C18.498 3.65561 17.4047 2.50791 16.0231 2.4217L15.856 2.4165ZM9.12887 6.38222C9.48694 5.66172 10.5164 5.66172 10.871 6.38395L11.5677 7.7947L13.1256 8.02112C13.8827 8.13345 14.2072 9.02459 13.7379 9.59631L13.6615 9.67953L12.5347 10.7747L12.8017 12.3254C12.9315 13.0832 12.1783 13.667 11.4884 13.3946L11.3904 13.3498L9.9987 12.6187L8.60629 13.351C7.92679 13.7054 7.13679 13.1721 7.18468 12.4321L7.19732 12.3251L7.4627 10.7747L6.3373 9.6784C5.78889 9.14245 6.05117 8.23113 6.76595 8.04341L6.87651 8.02082L8.4307 7.7947L9.12887 6.38222ZM9.9987 8.0067L9.60199 8.81206C9.49274 9.0333 9.28166 9.18666 9.03749 9.22219L8.1517 9.35071L8.79272 9.97566C8.94444 10.1234 9.02545 10.327 9.01917 10.5355L9.00868 10.6399L8.8567 11.5237L9.65043 11.1072C9.83774 11.0087 10.0563 10.9946 10.2526 11.065L10.3486 11.1072L11.1417 11.5247L10.9903 10.6399C10.9545 10.4312 11.0087 10.2187 11.1365 10.0538L11.2065 9.97548L11.8467 9.35071L10.9616 9.2222C10.7523 9.19176 10.5673 9.07473 10.4499 8.90258L10.397 8.81206L9.9987 8.0067Z" fill="#94CF65"/>
</svg>
