<svg width="20" height="20" viewBox="0 0 20 20" fill="none" xmlns="http://www.w3.org/2000/svg">
<path d="M7.59126 12.4263L7.91106 12.4276C12.5556 12.4681 15.1835 13.4061 15.1835 15.9684C15.1835 18.4764 12.6649 19.4439 8.22343 19.5249L7.59126 19.5305C2.74676 19.5305 0 18.6096 0 15.9884C0 13.3638 2.75769 12.4263 7.59126 12.4263ZM7.59126 13.9263C3.57377 13.9263 1.50005 14.6313 1.50005 15.9884C1.50005 17.3369 3.5688 18.0305 7.59126 18.0305C11.609 18.0305 13.6835 17.3254 13.6835 15.9684C13.6835 14.6206 11.6128 13.9263 7.59126 13.9263ZM15.5872 11.7181C16.1678 11.7576 16.745 11.8408 17.2997 11.9638C18.4878 12.2001 19.3711 12.6413 19.7759 13.4905C20.0747 14.1192 20.0747 14.8507 19.7759 15.4793C19.3735 16.3264 18.4993 16.7644 17.3045 17.0102C16.8988 17.0936 16.5022 16.8323 16.4187 16.4266C16.3353 16.0209 16.5966 15.6243 17.0023 15.5409C17.7712 15.3827 18.2829 15.1263 18.4211 14.8355C18.5262 14.6142 18.5262 14.3557 18.4214 14.1351C18.2823 13.8433 17.7679 13.5863 16.9913 13.4317C16.4939 13.3216 15.991 13.2491 15.4854 13.2147C15.0722 13.1866 14.7599 12.8288 14.788 12.4155C14.8162 12.0022 15.174 11.69 15.5872 11.7181ZM7.59126 0.46936C10.4394 0.46936 12.7264 2.75605 12.7264 5.60354C12.7264 8.45185 10.4396 10.7387 7.59126 10.7387C4.74309 10.7387 2.45709 8.45199 2.45709 5.60354C2.45709 2.75591 4.74327 0.46936 7.59126 0.46936ZM14.0202 1.539C16.2552 1.539 18.0673 3.35154 18.0673 5.58614C18.0673 7.82143 16.2555 9.63328 14.0202 9.63328C13.606 9.63328 13.2702 9.29748 13.2702 8.88325C13.2702 8.46902 13.606 8.13323 14.0202 8.13323C15.427 8.13323 16.5673 6.99297 16.5673 5.58614C16.5673 4.17992 15.4266 3.03905 14.0202 3.03905C13.606 3.03905 13.2702 2.70325 13.2702 2.28902C13.2702 1.8748 13.606 1.539 14.0202 1.539ZM7.59126 1.96941C5.57178 1.96941 3.95714 3.58431 3.95714 5.60354C3.95714 7.62364 5.57165 9.23866 7.59126 9.23866C9.61112 9.23866 11.2264 7.62339 11.2264 5.60354C11.2264 3.58455 9.61099 1.96941 7.59126 1.96941Z" fill="#946FDE"/>
</svg>
