<svg width="16" height="13" viewBox="0 0 16 13" fill="none" xmlns="http://www.w3.org/2000/svg">
<path fill-rule="evenodd" clip-rule="evenodd" d="M8.00037 8.06712L8.08335 8.06715L8.26897 8.06778C9.68772 8.07712 12.93 8.22044 12.93 10.418C12.93 12.6012 9.80074 12.7435 8.29108 12.7528L7.73176 12.7528C6.31292 12.7435 3.07004 12.6003 3.07004 10.4055C3.07004 8.21963 6.31292 8.07707 7.73176 8.06777L7.91739 8.06715C7.94618 8.06712 7.97386 8.06712 8.00037 8.06712ZM8.00037 9.16945C6.25429 9.16945 4.17237 9.38403 4.17237 10.4055C4.17237 11.4039 6.13002 11.6373 7.84077 11.6505L8.00037 11.6511C9.74645 11.6511 11.8276 11.4373 11.8276 10.418C11.8276 9.38624 9.74645 9.16945 8.00037 9.16945ZM13.8453 7.76891C15.6259 8.03567 16 8.87197 16 9.52675C16 9.92652 15.8427 10.6563 14.7919 11.0568C14.7272 11.081 14.661 11.0928 14.5956 11.0928C14.3737 11.0928 14.1643 10.9576 14.0805 10.7378C13.9717 10.4534 14.115 10.1345 14.3994 10.0265C14.8977 9.83687 14.8977 9.62742 14.8977 9.52675C14.8977 9.20487 14.4883 8.97999 13.6814 8.85947C13.3809 8.81391 13.1729 8.53392 13.2177 8.23188C13.2626 7.93058 13.5418 7.72996 13.8453 7.76891ZM2.78226 8.23188C2.82709 8.53392 2.61912 8.81391 2.31855 8.85947C1.51165 8.97999 1.10232 9.20487 1.10232 9.52675C1.10232 9.62742 1.10232 9.83613 1.60131 10.0265C1.88571 10.1345 2.02901 10.4534 1.92025 10.7378C1.83647 10.9576 1.62703 11.0928 1.40509 11.0928C1.33969 11.0928 1.27355 11.081 1.20888 11.0568C0.157265 10.6555 0 9.92579 0 9.52675C0 8.8727 0.374055 8.03567 2.15541 7.76891C2.45892 7.73069 2.7367 7.93058 2.78226 8.23188ZM8.00037 0.414062C9.85227 0.414062 11.358 1.92057 11.358 3.77174C11.358 5.62291 9.85227 7.12941 8.00037 7.12941H7.98053C7.08397 7.12647 6.244 6.7752 5.61494 6.14026C4.98441 5.50606 4.63975 4.66388 4.6434 3.76953C4.6434 1.92057 6.1492 0.414062 8.00037 0.414062ZM8.00037 1.51639C6.75695 1.51639 5.74573 2.52832 5.74573 3.77174C5.74354 4.37434 5.9743 4.938 6.39685 5.36349C6.81941 5.78899 7.38233 6.02489 7.982 6.02709L8.00037 6.57825V6.02709C9.24379 6.02709 10.2557 5.01589 10.2557 3.77174C10.2557 2.52832 9.24379 1.51639 8.00037 1.51639ZM12.5486 1.13388C13.8405 1.34626 14.7789 2.45152 14.7789 3.76182C14.776 5.08093 13.7905 6.21265 12.4861 6.39563C12.4604 6.39931 12.4346 6.40078 12.4097 6.40078C12.1392 6.40078 11.9033 6.20163 11.8644 5.92604C11.8225 5.62401 12.0319 5.34549 12.334 5.3036C13.0982 5.19631 13.6751 4.53344 13.6766 3.76035C13.6766 2.99387 13.1269 2.3457 12.3692 2.2215C12.0694 2.17227 11.8658 1.8886 11.9151 1.58804C11.9651 1.28747 12.2465 1.08611 12.5486 1.13388ZM4.08565 1.58804C4.13489 1.8886 3.93132 2.17227 3.63149 2.2215C2.87383 2.3457 2.32414 2.99387 2.32414 3.76182C2.32561 4.53344 2.90249 5.19704 3.66603 5.3036C3.96807 5.34549 4.17751 5.62401 4.13562 5.92604C4.09667 6.20163 3.86078 6.40078 3.59034 6.40078C3.56535 6.40078 3.53963 6.39931 3.51391 6.39563C2.2095 6.21265 1.22475 5.08093 1.22181 3.76329C1.22181 2.45152 2.16026 1.34626 3.45218 1.13388C3.76157 1.08538 4.03568 1.28894 4.08565 1.58804Z" fill="#946FDE"/>
</svg>
