<svg width="21" height="20" viewBox="0 0 21 20" fill="none" xmlns="http://www.w3.org/2000/svg">
<path d="M19.0395 10.6792C19.0995 10.713 19.1115 10.7845 19.1139 10.8118L19.1145 10.8227L19.0478 15.1264C19.0478 16.8432 17.7177 18.2432 16.0427 18.329L15.8796 18.3332H5.84124C4.14508 18.3332 2.7619 16.9868 2.67711 15.2916L2.67299 15.1264L2.61463 10.8227C2.61463 10.8227 2.61463 10.7214 2.68966 10.6792C2.75636 10.637 2.83974 10.6876 2.84808 10.6961C4.53225 11.8269 6.55826 12.5779 8.68433 12.8902C8.98448 12.9324 9.28463 12.7383 9.368 12.4345C9.53996 11.7857 10.071 11.3447 10.7206 11.2921L10.8521 11.2868H10.8771C11.5858 11.2868 12.1777 11.7425 12.3612 12.4345C12.4445 12.7383 12.7447 12.9324 13.0448 12.8902C15.1709 12.5779 17.1969 11.8269 18.8811 10.6961C18.8811 10.6961 18.8978 10.6876 18.9144 10.6792C18.9478 10.6623 18.9978 10.6539 19.0395 10.6792ZM10.8604 12.4935C10.5471 12.4935 10.2828 12.7346 10.2409 13.0413L10.2351 13.1264V14.215C10.2351 14.5695 10.5186 14.848 10.8604 14.848C11.1814 14.848 11.4394 14.614 11.4801 14.302L11.4857 14.215V13.1264C11.4857 12.7805 11.2106 12.4935 10.8604 12.4935ZM11.936 1.6665C13.1866 1.6665 14.2121 2.62009 14.3705 3.84371H16.0213C17.7722 3.84371 19.1979 5.28674 19.1979 7.05888C19.1979 7.05888 19.1479 7.80909 19.1312 8.85381C19.1295 8.93651 19.0895 9.01752 19.0237 9.06647C18.6226 9.36267 18.2558 9.60739 18.2224 9.62427C16.8384 10.5525 15.2301 11.2057 13.5167 11.5306C13.405 11.5525 13.295 11.4943 13.2383 11.3947C12.758 10.5627 11.8609 10.0209 10.8604 10.0209C9.86658 10.0209 8.96113 10.5568 8.46672 11.3897C8.40919 11.4876 8.3008 11.5441 8.18991 11.523C6.49073 11.1973 4.88243 10.5449 3.50674 9.63271L2.70634 9.07575C2.63964 9.03356 2.59795 8.95761 2.59795 8.87322C2.57294 8.44284 2.53125 7.05888 2.53125 7.05888C2.53125 5.28674 3.95696 3.84371 5.70784 3.84371H7.35033C7.50874 2.62009 8.53425 1.6665 9.78488 1.6665H11.936ZM11.936 2.93232H9.78488C9.22626 2.93232 8.75103 3.3205 8.61763 3.84371H13.1032C12.9698 3.3205 12.4946 2.93232 11.936 2.93232Z" fill="#C5A9FB"/>
</svg>
