<svg width="51" height="51" viewBox="0 0 51 51" fill="none" xmlns="http://www.w3.org/2000/svg">
<g clip-path="url(#clip0_1459:7458)">
<path d="M25.5 22.6468C25.9046 22.6468 26.2324 22.3189 26.2324 21.9144V21.1055C26.2324 20.7009 25.9046 20.373 25.5 20.373C25.0954 20.373 24.7676 20.7009 24.7676 21.1055V21.9144C24.7677 22.3189 25.0955 22.6468 25.5 22.6468Z" fill="white"/>
<path d="M43.873 31.4495C43.7982 31.017 43.6979 30.5895 43.5689 30.1695C43.4095 29.5545 43.0735 28.8562 42.6318 28.0385C42.631 28.0371 42.6303 28.0358 42.6295 28.0343C42.4413 27.6861 42.2344 27.3165 42.0132 26.9221C40.3033 23.8713 37.7522 19.3173 37.568 12.9395H41.6776C42.0822 12.9395 42.41 12.6117 42.41 12.2071V5.73583C42.41 5.33134 42.0822 5.00341 41.6776 5.00341H38.2662C38.6856 2.69482 39.1406 1.10273 39.1456 1.08506C39.2092 0.863963 39.1654 0.62578 39.027 0.441894C38.8887 0.258008 38.672 0.149902 38.4419 0.149902H12.5565C12.3265 0.149902 12.1098 0.258008 11.9714 0.441894C11.833 0.625683 11.7892 0.863866 11.8527 1.08506C11.8578 1.10273 12.3128 2.69482 12.7322 5.00341H9.32089C8.91631 5.00341 8.58847 5.33134 8.58847 5.73583V12.2072C8.58847 12.6118 8.91631 12.9396 9.32089 12.9396H13.4304C13.2462 19.3173 10.6951 23.8713 8.98525 26.9221C8.76426 27.3164 8.55742 27.6856 8.36933 28.0336C8.36826 28.0356 8.36719 28.0375 8.36621 28.0395C7.9248 28.8567 7.58896 29.5548 7.42969 30.1696C7.30059 30.5898 7.2001 31.0177 7.12529 31.4506C7.11816 31.4802 7.11357 31.5101 7.11025 31.54C7.01855 32.0995 6.9707 32.6672 6.9707 33.2392C6.9707 41.3332 10.124 49.3509 10.2582 49.6882C10.3691 49.967 10.6388 50.1499 10.9388 50.1499H23.072C23.0725 50.1499 23.073 50.15 23.0735 50.15C23.0978 50.15 23.1218 50.1486 23.1456 50.1462C23.1502 50.1457 23.1546 50.1448 23.1591 50.1442C23.1778 50.1421 23.1963 50.1394 23.2145 50.1358C23.2227 50.1343 23.2306 50.1321 23.2386 50.1302C23.2528 50.1269 23.267 50.1234 23.2808 50.1193C23.2905 50.1165 23.3 50.1132 23.3094 50.11C23.3213 50.1059 23.3331 50.1017 23.3447 50.0971C23.3549 50.093 23.3648 50.0887 23.3747 50.0841C23.3852 50.0793 23.3958 50.0742 23.406 50.0689C23.416 50.0639 23.4258 50.0585 23.4355 50.053C23.4455 50.0474 23.4552 50.0413 23.4649 50.0352C23.4742 50.0292 23.4834 50.0233 23.4924 50.017C23.5021 50.0102 23.5116 50.0028 23.5211 49.9955C23.5293 49.9892 23.5375 49.9829 23.5454 49.9762C23.5554 49.9677 23.5651 49.9586 23.5747 49.9495C23.5813 49.9433 23.5881 49.9372 23.5945 49.9308C23.6053 49.9198 23.6155 49.9082 23.6256 49.8966C23.6301 49.8913 23.635 49.8862 23.6395 49.8809C23.6527 49.8647 23.6651 49.848 23.6769 49.8308C23.6779 49.8293 23.6791 49.828 23.68 49.8266C23.6929 49.8074 23.7049 49.7877 23.7161 49.7673C23.7182 49.7633 23.72 49.7591 23.722 49.7551C23.7303 49.7391 23.7384 49.7228 23.7456 49.7061C23.7494 49.6972 23.7525 49.6879 23.756 49.6787C23.7607 49.6666 23.7654 49.6545 23.7694 49.642C23.773 49.6309 23.7758 49.6194 23.7789 49.6081C23.7818 49.5971 23.7849 49.5861 23.7874 49.5749C23.79 49.563 23.7919 49.5509 23.7939 49.5388C23.7953 49.5307 23.7972 49.5227 23.7983 49.5145C24.1061 47.2151 24.4164 43.6339 24.5471 42.0526C24.6259 42.0572 24.7049 42.0607 24.784 42.0607H26.2143C26.2935 42.0607 26.3724 42.0572 26.4512 42.0526C26.582 43.6339 26.8921 47.2151 27.2 49.5145C27.201 49.5227 27.203 49.5307 27.2044 49.5388C27.2064 49.5509 27.2083 49.563 27.2109 49.5749C27.2133 49.5861 27.2165 49.5971 27.2194 49.6081C27.2224 49.6194 27.2253 49.6309 27.2289 49.642C27.233 49.6546 27.2378 49.6667 27.2424 49.679C27.2459 49.688 27.249 49.6972 27.2528 49.706C27.26 49.7228 27.2681 49.7391 27.2764 49.7552C27.2785 49.7592 27.2802 49.7634 27.2824 49.7673C27.2935 49.7877 27.3054 49.8074 27.3184 49.8266C27.3194 49.828 27.3206 49.8293 27.3215 49.8308C27.3334 49.848 27.3458 49.8647 27.3589 49.8809C27.3634 49.8862 27.3682 49.8913 27.3729 49.8966C27.3831 49.9082 27.3932 49.9198 27.404 49.9308C27.4103 49.9372 27.4172 49.9433 27.4238 49.9495C27.4334 49.9586 27.443 49.9676 27.4531 49.9762C27.461 49.9828 27.4692 49.9891 27.4774 49.9955C27.4869 50.0028 27.4963 50.0101 27.5061 50.017C27.5151 50.0233 27.5243 50.0292 27.5336 50.0352C27.5432 50.0413 27.553 50.0474 27.5629 50.053C27.5726 50.0586 27.5825 50.0639 27.5924 50.0689C27.6028 50.0742 27.6132 50.0792 27.6239 50.0841C27.6337 50.0886 27.6437 50.093 27.6539 50.097C27.6655 50.1017 27.6773 50.1059 27.6891 50.1099C27.6986 50.1131 27.7081 50.1164 27.7177 50.1192C27.7316 50.1233 27.7458 50.1268 27.7599 50.1301C27.768 50.1319 27.7759 50.1341 27.784 50.1357C27.8023 50.1393 27.8208 50.142 27.8394 50.1441C27.844 50.1447 27.8484 50.1456 27.853 50.1461C27.8768 50.1484 27.9008 50.1499 27.9251 50.1499C27.9255 50.1499 27.926 50.1498 27.9265 50.1498H40.0597C40.3596 50.1498 40.6293 49.9669 40.7403 49.6881C40.8744 49.3508 44.0279 41.333 44.0279 33.2391C44.0279 32.6674 43.98 32.0998 43.8883 31.5403C43.885 31.5099 43.8803 31.4796 43.873 31.4495V31.4495ZM13.5065 1.61474H37.4919C37.3029 2.37646 37.0323 3.55956 36.778 5.00341H14.2205C13.9662 3.55956 13.6956 2.37646 13.5065 1.61474ZM10.0533 6.46825H11.8242V7.3536C11.8242 7.75819 12.152 8.08602 12.5566 8.08602C12.9612 8.08602 13.2891 7.75819 13.2891 7.3536V6.46825H13.5972C13.5986 6.46825 13.6 6.46844 13.6014 6.46844C13.6021 6.46844 13.6029 6.46825 13.6037 6.46825H18.2955V7.3536C18.2955 7.75819 18.6233 8.08602 19.0279 8.08602C19.4325 8.08602 19.7603 7.75819 19.7603 7.3536V6.46825H24.7669V7.3536C24.7669 7.75819 25.0947 8.08602 25.4993 8.08602C25.9039 8.08602 26.2317 7.75819 26.2317 7.3536V6.46825H31.2382V7.3536C31.2382 7.75819 31.5661 8.08602 31.9707 8.08602C32.3752 8.08602 32.7031 7.75819 32.7031 7.3536V6.46825H37.7096V7.3536C37.7096 7.75819 38.0374 8.08602 38.442 8.08602C38.8466 8.08602 39.1745 7.75819 39.1745 7.3536V6.46825H40.9453V11.4748H10.0533V6.46825ZM22.4277 48.685H11.4454C10.7801 46.8671 8.43545 39.9802 8.43545 33.2391C8.43545 33.1074 8.43916 32.9759 8.44482 32.8448L22.7299 41.4876C22.8521 41.5615 22.9788 41.6266 23.1075 41.6866C23.0021 42.9772 22.7208 46.2944 22.4277 48.685V48.685ZM24.784 40.5958C24.3271 40.5958 23.879 40.4708 23.4882 40.2343L8.65488 31.2597C8.70605 31.0327 8.76552 30.8075 8.83437 30.5849C8.83798 30.573 8.8414 30.561 8.84453 30.549C8.94336 30.1597 9.15908 29.6813 9.45175 29.1181H15.7922C16.1968 29.1181 16.5246 28.7903 16.5246 28.3857C16.5246 27.9812 16.1968 27.6533 15.7922 27.6533H10.2547C10.2575 27.6483 10.2602 27.6435 10.263 27.6385C12.0482 24.4533 14.714 19.6954 14.8962 12.9397H36.1022C36.2843 19.6953 38.95 24.4532 40.7353 27.6384C40.7381 27.6434 40.7409 27.6483 40.7436 27.6533H18.7219C18.3173 27.6533 17.9894 27.9812 17.9894 28.3857C17.9894 28.7903 18.3173 29.1181 18.7219 29.1181H41.5467C41.8394 29.6813 42.0551 30.1597 42.1538 30.5489C42.1569 30.561 42.1603 30.573 42.164 30.5849C42.2328 30.8076 42.2923 31.0327 42.3435 31.2598L27.5101 40.2345C27.1194 40.4709 26.6714 40.5959 26.2144 40.5959H24.784V40.5958ZM39.5528 48.685H28.5708C28.2778 46.2944 27.9964 42.9772 27.891 41.6866C28.0197 41.6266 28.1463 41.5615 28.2685 41.4876L42.5536 32.8448C42.5593 32.976 42.563 33.1074 42.563 33.2391C42.563 39.9727 40.2178 46.8658 39.5528 48.685Z" fill="white"/>
<path d="M48.1498 14.7106H45.6465V13.8252C45.6465 13.5551 45.4978 13.3068 45.2597 13.1795C45.0216 13.0521 44.7327 13.0658 44.5078 13.2158L39.6543 16.4516C39.4505 16.5874 39.3281 16.816 39.3281 17.0609C39.3281 17.3059 39.4505 17.5346 39.6543 17.6703L44.5078 20.9061C44.6304 20.9878 44.772 21.0291 44.9141 21.0291C45.0326 21.0291 45.1514 21.0004 45.2597 20.9424C45.4977 20.8149 45.6465 20.5667 45.6465 20.2967V19.4112H48.1498C48.5544 19.4112 48.8822 19.0834 48.8822 18.6788V15.4432C48.8822 15.0385 48.5544 14.7106 48.1498 14.7106ZM47.4174 17.9462H44.9141C44.5095 17.9462 44.1816 18.274 44.1816 18.6786V18.928L41.3809 17.0608L44.1816 15.1937V15.4431C44.1816 15.8477 44.5095 16.1755 44.9141 16.1755H47.4174V17.9462Z" fill="white"/>
<path d="M11.6712 17.0609C11.6712 16.816 11.5488 16.5873 11.345 16.4515L6.4916 13.2158C6.2668 13.0659 5.97783 13.052 5.73975 13.1795C5.50166 13.3069 5.35293 13.5551 5.35293 13.8252V14.7106H2.84961C2.44502 14.7106 2.11719 15.0384 2.11719 15.443V18.6787C2.11719 19.0833 2.44502 19.4111 2.84961 19.4111H5.35293V20.2966C5.35293 20.5667 5.50166 20.8149 5.73975 20.9423C5.84805 21.0003 5.9668 21.029 6.08535 21.029C6.22734 21.029 6.36904 20.9877 6.4916 20.9059L11.345 17.6702C11.5488 17.5345 11.6712 17.3058 11.6712 17.0609ZM6.81777 18.9281V18.6787C6.81777 18.2741 6.48994 17.9463 6.08535 17.9463H3.58203V16.1755H6.08535C6.48994 16.1755 6.81777 15.8476 6.81777 15.443V15.1936L9.61846 17.0608L6.81777 18.9281Z" fill="white"/>
</g>
<defs>
<clipPath id="clip0_1459:7458">
<rect width="50" height="50" fill="white" transform="translate(0.5 0.149902)"/>
</clipPath>
</defs>
</svg>
