<svg width="51" height="51" viewBox="0 0 51 51" fill="none" xmlns="http://www.w3.org/2000/svg">
<g clip-path="url(#clip0_1543:7554)">
<path d="M38.4116 16.4303L39.4737 14.9134L41.5243 16.3492C41.6523 16.4388 41.7987 16.4817 41.9438 16.4817C42.1746 16.4817 42.4019 16.3729 42.5443 16.1693L44.4002 13.5188C45.1435 12.4573 44.8846 10.9889 43.8231 10.2454L38.5222 6.53379C37.4606 5.79043 35.992 6.04951 35.2487 7.11094L33.3929 9.76143C33.2814 9.92051 33.2378 10.1175 33.2716 10.3087C33.3053 10.5 33.4136 10.67 33.5728 10.7814L35.6233 12.2173L34.5614 13.7339C32.9806 12.8917 31.27 12.2622 29.4678 11.8849V8.97148C29.4678 8.56689 29.1399 8.23906 28.7354 8.23906H27.85V6.46826H31.9712C32.3758 6.46826 32.7036 6.14043 32.7036 5.73584V2.5002C32.7036 1.2043 31.6492 0.149902 30.3531 0.149902H20.6462C19.3502 0.149902 18.2959 1.2043 18.2959 2.5002V5.73584C18.2959 6.14043 18.6238 6.46826 19.0283 6.46826H23.1494V8.23906H22.2641C21.8596 8.23906 21.5316 8.56689 21.5316 8.97148V11.8849C19.7294 12.2622 18.0189 12.8917 16.4381 13.7339L15.3762 12.2173L17.4268 10.7814C17.5858 10.67 17.6942 10.5 17.7279 10.3087C17.7616 10.1174 17.718 9.92041 17.6065 9.76143L15.7507 7.11094C15.3906 6.59668 14.8518 6.25342 14.2335 6.14434C13.6153 6.03525 12.9915 6.17363 12.4773 6.53369L7.17637 10.2454C6.11484 10.9889 5.85596 12.4572 6.59922 13.5188L8.45508 16.1693C8.59756 16.3729 8.8248 16.4817 9.05566 16.4817C9.20078 16.4817 9.34727 16.4388 9.4751 16.3492L11.5257 14.9134L12.5878 16.4303C8.6458 19.9729 6.16211 25.1077 6.16211 30.8123C6.16211 41.4751 14.8369 50.1499 25.4997 50.1499C30.1253 50.1499 34.6015 48.4909 38.1037 45.4783C38.4105 45.2146 38.4451 44.7521 38.1814 44.4455C37.9176 44.1388 37.455 44.104 37.1485 44.3679C33.9119 47.1519 29.7749 48.6851 25.4997 48.6851C15.6446 48.6851 7.62695 40.6674 7.62695 30.8123C7.62695 20.9572 15.6446 12.9396 25.4997 12.9396C35.3548 12.9396 43.3725 20.9573 43.3725 30.8124C43.3725 35.0446 41.8665 39.1497 39.1319 42.3714C38.8701 42.6798 38.9079 43.142 39.2163 43.4037C39.5248 43.6657 39.987 43.6275 40.2486 43.3193C43.2077 39.8332 44.8372 35.3914 44.8372 30.8124C44.8373 25.1077 42.3536 19.9729 38.4116 16.4303V16.4303ZM36.4486 7.95117C36.5844 7.75752 36.7873 7.62812 37.0202 7.58701C37.2527 7.5459 37.4881 7.59805 37.6818 7.73369L42.9827 11.4454C43.3827 11.7255 43.4803 12.2787 43.2003 12.6787L41.7646 14.7292L40.3139 13.7135L40.8217 12.9882C41.0537 12.6568 40.9732 12.2002 40.6418 11.9682C40.3105 11.7361 39.8538 11.8167 39.6218 12.148L39.114 12.8733L38.3887 12.3655L37.6634 11.8576L38.1712 11.1323C38.4032 10.8009 38.3227 10.3442 37.9913 10.1123C37.6601 9.88027 37.2033 9.96084 36.9713 10.2922L36.4635 11.0175L35.0129 10.0018L36.4486 7.95117ZM36.8232 13.0575L37.5485 13.5653L38.2738 14.0732L37.2818 15.4899C36.8147 15.13 36.3311 14.7905 35.8317 14.4736L36.8232 13.0575ZM19.7607 2.5002C19.7607 2.01191 20.1579 1.61475 20.6462 1.61475H30.3531C30.8414 1.61475 31.2387 2.01191 31.2387 2.5002V5.00342H29.4678V4.11797C29.4678 3.71338 29.1399 3.38555 28.7354 3.38555C28.3308 3.38555 28.0029 3.71338 28.0029 4.11797V5.00342H27.1175H26.2321V4.11797C26.2321 3.71338 25.9043 3.38555 25.4997 3.38555C25.0952 3.38555 24.7673 3.71338 24.7673 4.11797V5.00342H23.8818H22.9965V4.11797C22.9965 3.71338 22.6686 3.38555 22.2641 3.38555C21.8596 3.38555 21.5316 3.71338 21.5316 4.11797V5.00342H19.7607V2.5002ZM24.6143 6.46826H26.3851V8.23906H24.6143V6.46826ZM9.23477 14.7292L7.79902 12.6787C7.51895 12.2787 7.6166 11.7255 8.0165 11.4454L13.3175 7.73369C13.4718 7.62568 13.6487 7.57383 13.8241 7.57383C14.1035 7.57383 14.3787 7.70547 14.5507 7.95107L15.9865 10.0016L14.5358 11.0173L14.0279 10.292C13.7959 9.96055 13.3392 9.88018 13.0079 10.1121C12.6766 10.3441 12.596 10.8008 12.828 11.1321L13.3359 11.8574L12.6106 12.3652L11.8854 12.873L11.3775 12.1478C11.1456 11.8163 10.6889 11.7359 10.3575 11.9679C10.0262 12.1999 9.94561 12.6566 10.1776 12.9879L10.6854 13.7132L9.23477 14.7292ZM12.7256 14.0731L12.8104 14.0137L14.1762 13.0574L15.1677 14.4734C14.6683 14.7903 14.1847 15.1298 13.7176 15.4898L12.7256 14.0731ZM22.9965 11.6365V9.70391H23.8818H27.1175H28.0028V11.6365C27.1832 11.5301 26.3478 11.4747 25.4996 11.4747C24.6516 11.4748 23.8161 11.5302 22.9965 11.6365V11.6365Z" fill="white"/>
<path d="M25.4983 14.7104C16.6197 14.7104 9.39648 21.9338 9.39648 30.8124C9.39648 39.691 16.6197 46.9143 25.4983 46.9143C34.377 46.9143 41.6002 39.6909 41.6002 30.8123C41.6002 21.9337 34.377 14.7104 25.4983 14.7104V14.7104ZM25.4983 45.4494C17.4274 45.4494 10.8613 38.8833 10.8613 30.8123C10.8613 22.7413 17.4274 16.1753 25.4983 16.1753C33.5692 16.1753 40.1353 22.7414 40.1353 30.8124C40.1353 38.8834 33.5692 45.4494 25.4983 45.4494Z" fill="white"/>
<path d="M25.5 21.8379C25.9046 21.8379 26.2324 21.5101 26.2324 21.1055V18.6787C26.2324 18.2741 25.9046 17.9463 25.5 17.9463C25.0955 17.9463 24.7676 18.2741 24.7676 18.6787V21.1055C24.7676 21.5101 25.0955 21.8379 25.5 21.8379Z" fill="white"/>
<path d="M16.5244 30.8125C16.5244 30.4079 16.1965 30.0801 15.792 30.0801H13.3652C12.9607 30.0801 12.6328 30.4079 12.6328 30.8125C12.6328 31.2171 12.9607 31.5449 13.3652 31.5449H15.792C16.1965 31.5449 16.5244 31.2171 16.5244 30.8125Z" fill="white"/>
<path d="M25.5 39.7871C25.0955 39.7871 24.7676 40.1149 24.7676 40.5195V42.9464C24.7676 43.351 25.0955 43.6788 25.5 43.6788C25.9046 43.6788 26.2324 43.351 26.2324 42.9464V40.5195C26.2324 40.1149 25.9046 39.7871 25.5 39.7871Z" fill="white"/>
<path d="M37.6338 30.0801H35.207C34.8024 30.0801 34.4746 30.4079 34.4746 30.8125C34.4746 31.2171 34.8024 31.5449 35.207 31.5449H37.6338C38.0384 31.5449 38.3662 31.2171 38.3662 30.8125C38.3662 30.4079 38.0384 30.0801 37.6338 30.0801Z" fill="white"/>
<path d="M17.4378 21.7146C17.1518 21.4285 16.6881 21.4284 16.402 21.7145C16.116 22.0005 16.116 22.4643 16.402 22.7502L17.546 23.8943C17.6889 24.0373 17.8764 24.1088 18.0638 24.1088C18.2512 24.1088 18.4387 24.0373 18.5817 23.8944C18.8677 23.6083 18.8677 23.1446 18.5817 22.8585L17.4378 21.7146Z" fill="white"/>
<path d="M17.546 37.7301L16.402 38.8742C16.116 39.1602 16.116 39.624 16.402 39.9099C16.545 40.0529 16.7325 40.1244 16.9199 40.1244C17.1073 40.1244 17.2948 40.0529 17.4378 39.9098L18.5817 38.7658C18.8677 38.4797 18.8677 38.016 18.5817 37.73C18.2958 37.4442 17.832 37.4441 17.546 37.7301Z" fill="white"/>
<path d="M33.4535 37.7306C33.1674 37.4446 32.7037 37.4446 32.4177 37.7306C32.1316 38.0167 32.1316 38.4804 32.4177 38.7664L33.5617 39.9104C33.7048 40.0534 33.8923 40.1249 34.0797 40.1249C34.2671 40.1249 34.4546 40.0534 34.5976 39.9104C34.8837 39.6243 34.8837 39.1606 34.5976 38.8746L33.4535 37.7306Z" fill="white"/>
<path d="M32.9355 24.1088C33.1229 24.1088 33.3104 24.0373 33.4535 23.8943L34.5975 22.7503C34.8836 22.4642 34.8836 22.0005 34.5975 21.7145C34.3114 21.4285 33.8477 21.4285 33.5617 21.7145L32.4177 22.8585C32.1316 23.1446 32.1316 23.6083 32.4177 23.8943C32.5606 24.0372 32.7481 24.1088 32.9355 24.1088V24.1088Z" fill="white"/>
<path d="M29.0317 22.8627C28.6619 22.6983 28.2292 22.8648 28.065 23.2345L25.7364 28.474C25.6582 28.4661 25.5789 28.462 25.4987 28.462C24.2027 28.462 23.1484 29.5163 23.1484 30.8122C23.1484 32.1081 24.2026 33.1625 25.4986 33.1625C26.7945 33.1625 27.8488 32.1082 27.8488 30.8123C27.8488 30.122 27.5497 29.5005 27.0744 29.0702L29.4035 23.8295C29.5679 23.4597 29.4014 23.027 29.0317 22.8627V22.8627ZM25.4986 31.6976C25.0104 31.6976 24.6132 31.3005 24.6132 30.8123C24.6132 30.3241 25.0104 29.9269 25.4986 29.9269C25.9868 29.9269 26.384 30.3241 26.384 30.8123C26.384 31.3005 25.9868 31.6976 25.4986 31.6976Z" fill="white"/>
</g>
<defs>
<clipPath id="clip0_1543:7554">
<rect width="50" height="50" fill="white" transform="translate(0.5 0.149902)"/>
</clipPath>
</defs>
</svg>
