<svg width="51" height="51" viewBox="0 0 51 51" fill="none" xmlns="http://www.w3.org/2000/svg">
<g clip-path="url(#clip0_1543:7538)">
<path d="M49.7669 29.271H48.8815V0.882324C48.8815 0.477734 48.5537 0.149902 48.1491 0.149902H44.9134C42.7254 0.149902 40.9453 1.92998 40.9453 4.11797V20.2964C40.9453 22.2343 42.3416 23.8521 44.181 24.1968V29.271H43.2956C42.891 29.271 42.5632 29.5988 42.5632 30.0034V47.855C42.5632 49.1204 43.5927 50.1499 44.8581 50.1499H48.2044C49.4698 50.1499 50.4993 49.1204 50.4993 47.855V30.0034C50.4993 29.5989 50.1715 29.271 49.7669 29.271ZM45.6458 24.2646H45.7223C46.1269 24.2646 46.4547 23.9367 46.4547 23.5321C46.4547 23.1275 46.1269 22.7997 45.7223 22.7997H44.9134C43.5331 22.7997 42.4102 21.6768 42.4102 20.2964V4.11797C42.4102 2.99248 43.1569 2.03828 44.181 1.72432V8.97148C44.181 9.37607 44.5088 9.70391 44.9134 9.70391C45.318 9.70391 45.6458 9.37607 45.6458 8.97148V1.61475H47.4167V29.271H45.6458V24.2646ZM49.0345 30.7358V32.5066H44.0279V30.7358H49.0345ZM48.2044 48.6851H44.858C44.4004 48.6851 44.0279 48.3126 44.0279 47.855V33.9715H49.0345V47.855C49.0345 48.3126 48.662 48.6851 48.2044 48.6851Z" fill="white"/>
<path d="M46.5312 44.6401C46.1267 44.6401 45.7988 44.968 45.7988 45.3726V46.1815C45.7988 46.5861 46.1267 46.914 46.5312 46.914C46.9358 46.914 47.2637 46.5861 47.2637 46.1815V45.3726C47.2637 44.968 46.9358 44.6401 46.5312 44.6401Z" fill="white"/>
<path d="M4.46875 44.6401C4.06416 44.6401 3.73633 44.968 3.73633 45.3726V46.1815C3.73633 46.5861 4.06416 46.914 4.46875 46.914C4.87334 46.914 5.20117 46.5861 5.20117 46.1815V45.3726C5.20117 44.968 4.87324 44.6401 4.46875 44.6401Z" fill="white"/>
<path d="M7.70381 0.958789C7.29922 0.958789 6.97139 1.28662 6.97139 1.69121V8.23906H5.20049V0.882324C5.20049 0.477734 4.87266 0.149902 4.46807 0.149902C4.06348 0.149902 3.73564 0.477734 3.73564 0.882324V8.23906H1.96484V1.69121C1.96484 1.28662 1.63701 0.958789 1.23242 0.958789C0.827832 0.958789 0.5 1.28672 0.5 1.69121V10.5894C0.5 11.8983 1.1374 13.0608 2.11777 13.784V29.271H1.23242C0.827832 29.271 0.5 29.5988 0.5 30.0034V47.855C0.5 49.1204 1.52949 50.1499 2.79492 50.1499H6.14131C7.40674 50.1499 8.43623 49.1204 8.43623 47.855V30.0034C8.43623 29.5988 8.1084 29.271 7.70381 29.271H6.81836V13.784C7.79873 13.0608 8.43613 11.8983 8.43613 10.5894V1.69121C8.43623 1.28672 8.1083 0.958789 7.70381 0.958789V0.958789ZM6.14131 48.6851H2.79492C2.33721 48.6851 1.96484 48.3126 1.96484 47.855V33.9715H6.97139V47.855C6.97139 48.3126 6.59893 48.6851 6.14131 48.6851ZM6.97139 32.5066H1.96484V30.7358H6.97139V32.5066ZM5.35352 29.271H3.58262V14.4566C3.86748 14.5219 4.16357 14.5574 4.46797 14.5574C4.77236 14.5574 5.06846 14.5218 5.35342 14.4565V29.271H5.35352ZM4.46807 13.0926C3.08779 13.0926 1.96484 11.9696 1.96484 10.5894V9.70391H6.97139V10.5894C6.97139 11.9696 5.84844 13.0926 4.46807 13.0926V13.0926Z" fill="white"/>
<path d="M25.5 9.85693C17.0674 9.85693 10.207 16.7173 10.207 25.1499C10.207 29.0456 11.6726 32.7565 14.3335 35.5992C14.6099 35.8943 15.0732 35.9097 15.3687 35.6334C15.6641 35.3569 15.6794 34.8935 15.4029 34.5981C12.997 32.0279 11.6719 28.6725 11.6719 25.1499C11.6719 17.5251 17.8752 11.3218 25.5 11.3218C33.1248 11.3218 39.3281 17.5251 39.3281 25.1499C39.3281 32.7747 33.1248 38.978 25.5 38.978C22.6134 38.978 19.8481 38.0979 17.503 36.4327C17.1731 36.1985 16.716 36.2762 16.4818 36.6059C16.2477 36.9356 16.3252 37.3929 16.655 37.6271C19.2492 39.4691 22.3077 40.4429 25.5 40.4429C33.9326 40.4429 40.793 33.5825 40.793 25.1499C40.793 16.7173 33.9326 9.85693 25.5 9.85693Z" fill="white"/>
<path d="M25.5007 37.2069C32.1491 37.2069 37.558 31.798 37.558 25.1496C37.558 18.5012 32.1491 13.0923 25.5007 13.0923C18.8522 13.0923 13.4434 18.5012 13.4434 25.1496C13.4434 31.798 18.8522 37.2069 25.5007 37.2069ZM25.5007 14.5571C31.3414 14.5571 36.0932 19.3089 36.0932 25.1496C36.0932 30.9903 31.3414 35.7421 25.5007 35.7421C19.66 35.7421 14.9082 30.9903 14.9082 25.1496C14.9082 19.3089 19.66 14.5571 25.5007 14.5571V14.5571Z" fill="white"/>
<path d="M25.5001 32.354C28.5802 32.354 31.086 29.8481 31.086 26.7681V24.3413C31.086 22.5993 29.6688 21.1821 27.9268 21.1821H26.2325V20.7493L27.4455 20.1428C27.8072 19.9619 27.9539 19.522 27.773 19.1601C27.5923 18.7983 27.1524 18.6519 26.7903 18.8325L26.2325 19.1114V18.6787C26.2325 18.2741 25.9047 17.9463 25.5001 17.9463C25.0955 17.9463 24.7677 18.2741 24.7677 18.6787V21.182H23.0733C21.3313 21.182 19.9141 22.5992 19.9141 24.3412V26.768C19.9142 29.8481 22.42 32.354 25.5001 32.354ZM21.379 24.3413C21.379 23.4071 22.1391 22.647 23.0734 22.647H27.9269C28.8611 22.647 29.6213 23.407 29.6213 24.3413V26.7681C29.6213 29.0405 27.7726 30.8892 25.5002 30.8892C23.2278 30.8892 21.3791 29.0404 21.3791 26.7681V24.3413H21.379Z" fill="white"/>
</g>
<defs>
<clipPath id="clip0_1543:7538">
<rect width="50" height="50" fill="white" transform="translate(0.5 0.149902)"/>
</clipPath>
</defs>
</svg>
