<svg width="30" height="31" viewBox="0 0 30 31" fill="none" xmlns="http://www.w3.org/2000/svg">
<path d="M11.25 13.625H20.625" stroke="#946FDE" stroke-width="2" stroke-linecap="round" stroke-linejoin="round"/>
<path d="M11.25 17.375H20.625" stroke="#946FDE" stroke-width="2" stroke-linecap="round" stroke-linejoin="round"/>
<path d="M3.75 23.9375C4.24728 23.9375 4.72419 23.74 5.07583 23.3883C5.42746 23.0367 5.625 22.5598 5.625 22.0625V8C5.625 7.75136 5.72377 7.5129 5.89959 7.33709C6.0754 7.16127 6.31386 7.0625 6.5625 7.0625H25.3125C25.5611 7.0625 25.7996 7.16127 25.9754 7.33709C26.1512 7.5129 26.25 7.75136 26.25 8V22.0625C26.25 22.5598 26.0525 23.0367 25.7008 23.3883C25.3492 23.74 24.8723 23.9375 24.375 23.9375H3.75Z" stroke="#946FDE" stroke-width="2" stroke-linecap="round" stroke-linejoin="round"/>
<path d="M3.75 23.9375C3.25272 23.9375 2.77581 23.74 2.42417 23.3883C2.07254 23.0367 1.875 22.5598 1.875 22.0625V10.8125" stroke="#946FDE" stroke-width="2" stroke-linecap="round" stroke-linejoin="round"/>
</svg>
