<svg width="20" height="21" viewBox="0 0 20 21" fill="none" xmlns="http://www.w3.org/2000/svg">
<path d="M10 1.75C5.16797 1.75 1.25 5.66797 1.25 10.5C1.25 15.332 5.16797 19.25 10 19.25C14.832 19.25 18.75 15.332 18.75 10.5C18.75 5.66797 14.832 1.75 10 1.75ZM10.625 14.7188C10.625 14.8047 10.5547 14.875 10.4688 14.875H9.53125C9.44531 14.875 9.375 14.8047 9.375 14.7188V9.40625C9.375 9.32031 9.44531 9.25 9.53125 9.25H10.4688C10.5547 9.25 10.625 9.32031 10.625 9.40625V14.7188ZM10 8C9.75467 7.99499 9.52108 7.89402 9.34935 7.71875C9.17763 7.54348 9.08144 7.30788 9.08144 7.0625C9.08144 6.81712 9.17763 6.58152 9.34935 6.40625C9.52108 6.23098 9.75467 6.13001 10 6.125C10.2453 6.13001 10.4789 6.23098 10.6506 6.40625C10.8224 6.58152 10.9186 6.81712 10.9186 7.0625C10.9186 7.30788 10.8224 7.54348 10.6506 7.71875C10.4789 7.89402 10.2453 7.99499 10 8Z" fill="#D5D5DC"/>
</svg>
