<svg width="20" height="20" viewBox="0 0 20 20" fill="none" xmlns="http://www.w3.org/2000/svg">
<path d="M17.3027 10.4238C17.6309 9.99023 17.8125 9.45899 17.8125 8.90625C17.8125 8.0293 17.3223 7.19922 16.5332 6.73633C16.3301 6.61718 16.0988 6.55447 15.8633 6.55469H11.1797L11.2969 4.15431C11.3242 3.57423 11.1191 3.02345 10.7207 2.60353C10.5252 2.39655 10.2893 2.23188 10.0276 2.11967C9.76588 2.00747 9.48395 1.95013 9.19922 1.95119C8.18359 1.95119 7.28516 2.63478 7.01562 3.61329L5.33789 9.6875H5.33203V18.0469H14.5566C14.7363 18.0469 14.9121 18.0117 15.0742 17.9414C16.0039 17.5449 16.6035 16.6367 16.6035 15.6289C16.6035 15.3828 16.5684 15.1406 16.498 14.9062C16.8262 14.4726 17.0078 13.9414 17.0078 13.3887C17.0078 13.1426 16.9727 12.9004 16.9023 12.666C17.2305 12.2324 17.4121 11.7012 17.4121 11.1484C17.4082 10.9023 17.373 10.6582 17.3027 10.4238ZM2.1875 10.3125V17.4219C2.1875 17.7676 2.4668 18.0469 2.8125 18.0469H4.08203V9.6875H2.8125C2.4668 9.6875 2.1875 9.9668 2.1875 10.3125Z" fill="#76AE49"/>
</svg>
