<svg width="25" height="25" viewBox="0 0 25 25" fill="none" xmlns="http://www.w3.org/2000/svg">
<path d="M3.17969 10.4643H7.67969V20.2143H3.17969C2.98078 20.2143 2.79001 20.1353 2.64936 19.9946C2.50871 19.854 2.42969 19.6632 2.42969 19.4643V11.2143C2.42969 11.0154 2.50871 10.8246 2.64936 10.684C2.79001 10.5433 2.98078 10.4643 3.17969 10.4643V10.4643Z" stroke="#76AE49" stroke-linecap="round" stroke-linejoin="round"/>
<path d="M7.67969 10.4643L11.4297 2.96429C11.8237 2.96429 12.2138 3.04189 12.5777 3.19266C12.9417 3.34342 13.2724 3.5644 13.551 3.84297C13.8296 4.12155 14.0506 4.45227 14.2013 4.81624C14.3521 5.18022 14.4297 5.57033 14.4297 5.96429V8.21429H20.2305C20.4432 8.21429 20.6535 8.25953 20.8473 8.34699C21.0412 8.43445 21.2143 8.56214 21.355 8.72159C21.4958 8.88104 21.601 9.0686 21.6638 9.27183C21.7265 9.47505 21.7453 9.6893 21.7189 9.90035L20.5939 18.9003C20.5486 19.2631 20.3723 19.5969 20.0982 19.8388C19.8241 20.0808 19.4711 20.2143 19.1055 20.2143H7.67969" stroke="#76AE49" stroke-linecap="round" stroke-linejoin="round"/>
</svg>
