<svg width="83" height="83" viewBox="0 0 83 83" fill="none" xmlns="http://www.w3.org/2000/svg">
<path d="M62.2199 32.7368C68.7432 36.6122 68.7433 46.056 62.2199 49.9314L40.2559 62.9798C33.5901 66.9399 25.1484 62.136 25.1484 54.3826L25.1484 28.2856C25.1484 20.5321 33.59 15.7282 40.2559 19.6883L62.2199 32.7368Z" fill="#94CF65"/>
<path d="M41.5 0C64.3731 0 83 18.6179 83 41.524C83 64.3821 64.3731 83 41.5 83C18.6269 83 0 64.3821 0 41.524C0 18.6179 18.6269 0 41.5 0ZM36.7732 25.0241C35.8919 25.0241 35.0507 25.2243 34.2495 25.6247C33.2481 26.1852 32.4469 27.0661 32.0063 28.1071C31.7259 28.8278 31.2852 30.9899 31.2852 31.0299C30.8446 33.3922 30.6042 37.2359 30.6042 41.48C30.6042 45.5279 30.8446 49.2074 31.2051 51.6097C31.2452 51.6498 31.6858 54.3324 32.1665 55.2533C33.0478 56.9349 34.7703 57.9759 36.6129 57.9759H36.7732C37.9749 57.9358 40.4986 56.8948 40.4986 56.8548C44.7447 55.0931 53.1168 49.6078 56.4817 45.9643L56.722 45.7241C57.1626 45.2836 57.7235 44.603 57.8436 44.4428C58.4846 43.602 58.805 42.561 58.805 41.524C58.805 40.3589 58.4445 39.2779 57.7635 38.397C57.6033 38.2369 57.0024 37.5562 56.4416 36.9957C53.1569 33.4723 44.5845 27.7067 40.098 25.945C39.417 25.6687 37.6945 25.0642 36.7732 25.0241Z" fill="white"/>
</svg>
