<svg width="72" height="51" viewBox="0 0 72 51" fill="none" xmlns="http://www.w3.org/2000/svg">
<g clip-path="url(#clip0_1139_9010)">
<path d="M69.5406 8.29861C69.1327 6.79127 68.3371 5.41707 67.2329 4.31286C66.1288 3.20864 64.7546 2.41295 63.2473 2.005C57.7289 0.5 35.5195 0.5 35.5195 0.5C35.5195 0.5 13.3089 0.545555 7.79061 2.05056C6.28325 2.45853 4.90906 3.25427 3.8049 4.35853C2.70073 5.46279 1.90511 6.83705 1.49728 8.34444C-0.171891 18.1494 -0.819391 33.09 1.54311 42.5028C1.95099 44.0101 2.74663 45.3843 3.85079 46.4885C4.95495 47.5927 6.32911 48.3884 7.83644 48.7964C13.3548 50.3014 35.5648 50.3014 35.5648 50.3014C35.5648 50.3014 57.7745 50.3014 63.2926 48.7964C64.7999 48.3885 66.1742 47.5928 67.2784 46.4886C68.3826 45.3844 69.1783 44.0102 69.5862 42.5028C71.3467 32.6839 71.8892 17.7528 69.5406 8.29889V8.29861Z" fill="#FF0000"/>
<path d="M28.4502 36.0721L46.8749 25.4004L28.4505 14.7288L28.4502 36.0721Z" fill="white"/>
</g>
<defs>
<clipPath id="clip0_1139_9010">
<rect width="71.1111" height="50" fill="white" transform="translate(0 0.5)"/>
</clipPath>
</defs>
</svg>
