<svg width="30" height="28" viewBox="0 0 30 28" fill="none" xmlns="http://www.w3.org/2000/svg">
<g clip-path="url(#clip0_1513:7501)">
<path d="M12.3678 16.898C12.3678 16.5124 12.1139 16.1822 11.7539 16.0444H0.613839C0.253839 16.1823 0 16.5124 0 16.898C0 20.0847 2.77404 22.6772 6.18394 22.6772C9.59374 22.6772 12.3678 20.0847 12.3678 16.898Z" fill="#C5A9FB"/>
<path d="M29.3867 16.0444H18.2466C17.8867 16.1822 17.6328 16.5124 17.6328 16.898C17.6328 20.0847 20.4069 22.6772 23.8167 22.6772C27.2266 22.6772 30.0007 20.0847 30.0007 16.898C30.0006 16.5124 29.7467 16.1823 29.3867 16.0444Z" fill="#C5A9FB"/>
<path d="M19.8912 25.2526H15.9876V7.31304H22.3168L18.9428 14.661H21.0931L23.8155 8.73209L26.5379 14.661H28.6882L25.1555 6.96771C25.9205 6.54064 26.4342 5.75975 26.4342 4.86884C26.4342 3.52107 25.2594 2.42464 23.8154 2.42464C23.2697 2.42464 22.8272 2.83766 22.8272 3.34694C22.8272 3.85622 23.2697 4.26924 23.8154 4.26924C24.1696 4.26924 24.4577 4.53831 24.4577 4.86875C24.4577 5.19928 24.1695 5.46825 23.8154 5.46825H15.9875V1.82514C15.9875 1.31586 15.5451 0.902832 14.9993 0.902832C14.4536 0.902832 14.0112 1.31586 14.0112 1.82514V5.46844H6.18338C5.82913 5.46844 5.54105 5.19937 5.54105 4.86893C5.54105 4.5384 5.82923 4.26943 6.18338 4.26943C6.72903 4.26943 7.17156 3.85641 7.17156 3.34713C7.17156 2.83785 6.72903 2.42483 6.18338 2.42483C4.73933 2.42483 3.56459 3.52126 3.56459 4.86903C3.56459 5.75994 4.07822 6.54073 4.84327 6.9679L1.31055 14.6612H3.46085L6.18327 8.73228L8.9057 14.6612H11.056L7.68206 7.31304H14.0113V25.2526H10.1078C9.56206 25.2526 9.11964 25.6655 9.11964 26.1749C9.11964 26.6842 9.56206 27.0972 10.1078 27.0972H19.8912C20.4369 27.0972 20.8793 26.6842 20.8793 26.1749C20.8793 25.6655 20.4369 25.2526 19.8912 25.2526Z" fill="#C5A9FB"/>
</g>
<defs>
<clipPath id="clip0_1513:7501">
<rect width="30" height="28" fill="white"/>
</clipPath>
</defs>
</svg>
