<svg width="21" height="20" viewBox="0 0 21 20" fill="none" xmlns="http://www.w3.org/2000/svg">
<path d="M20.797 5.90309C20.7858 5.06334 20.6286 4.23193 20.3324 3.44606C20.0755 2.78318 19.6832 2.18117 19.1806 1.67849C18.6779 1.17581 18.0759 0.783514 17.413 0.526666C16.6372 0.235455 15.8177 0.0779923 14.9892 0.0609825C13.9226 0.0133053 13.5844 0 10.8768 0C8.16917 0 7.82213 7.43489e-08 6.76325 0.0609825C5.93518 0.0781174 5.11601 0.235578 4.34059 0.526666C3.67761 0.783335 3.07551 1.17557 2.5728 1.67827C2.0701 2.18097 1.67787 2.78308 1.4212 3.44606C1.1294 4.22124 0.972282 5.04059 0.956622 5.86872C0.908945 6.93647 0.894531 7.27464 0.894531 9.98226C0.894531 12.6899 0.894531 13.0358 0.956622 14.0958C0.973254 14.9252 1.12959 15.7434 1.4212 16.5207C1.6783 17.1835 2.07082 17.7853 2.57369 18.2878C3.07656 18.7903 3.67872 19.1824 4.3417 19.439C5.11499 19.7419 5.93431 19.9106 6.76436 19.9379C7.83211 19.9856 8.17028 20 10.8779 20C13.5855 20 13.9326 20 14.9914 19.9379C15.8199 19.9216 16.6395 19.7645 17.4152 19.4733C18.0779 19.2162 18.6798 18.8238 19.1824 18.3211C19.6851 17.8185 20.0775 17.2166 20.3346 16.5539C20.6262 15.7778 20.7825 14.9595 20.7992 14.1291C20.8469 13.0624 20.8613 12.7242 20.8613 10.0155C20.8591 7.30791 20.8591 6.96419 20.797 5.90309ZM10.8701 15.1026C8.03834 15.1026 5.74429 12.8085 5.74429 9.97672C5.74429 7.14492 8.03834 4.85087 10.8701 4.85087C12.2296 4.85087 13.5334 5.39091 14.4947 6.3522C15.4559 7.31348 15.996 8.61726 15.996 9.97672C15.996 11.3362 15.4559 12.64 14.4947 13.6012C13.5334 14.5625 12.2296 15.1026 10.8701 15.1026ZM16.2 5.85653C16.043 5.85667 15.8875 5.82586 15.7424 5.76584C15.5973 5.70582 15.4655 5.61779 15.3545 5.50677C15.2435 5.39575 15.1554 5.26393 15.0954 5.11885C15.0354 4.97377 15.0046 4.81828 15.0047 4.66127C15.0047 4.50438 15.0356 4.34903 15.0957 4.20408C15.1557 4.05913 15.2437 3.92743 15.3547 3.81649C15.4656 3.70555 15.5973 3.61755 15.7423 3.55751C15.8872 3.49747 16.0426 3.46657 16.1994 3.46657C16.3563 3.46657 16.5117 3.49747 16.6566 3.55751C16.8016 3.61755 16.9333 3.70555 17.0442 3.81649C17.1552 3.92743 17.2432 4.05913 17.3032 4.20408C17.3632 4.34903 17.3941 4.50438 17.3941 4.66127C17.3941 5.3221 16.8597 5.85653 16.2 5.85653Z" fill="#F78AAA"/>
<path d="M10.8726 13.3062C12.7115 13.3062 14.2022 11.8155 14.2022 9.97661C14.2022 8.1377 12.7115 6.64697 10.8726 6.64697C9.0337 6.64697 7.54297 8.1377 7.54297 9.97661C7.54297 11.8155 9.0337 13.3062 10.8726 13.3062Z" fill="#F78AAA"/>
</svg>
