<svg width="21" height="20" viewBox="0 0 21 20" fill="none" xmlns="http://www.w3.org/2000/svg">
<path d="M13.929 0H7.78978C2.18746 0 0.859375 1.32808 0.859375 6.93041V13.0696C0.859375 18.6719 2.18746 20 7.78978 20H13.929C19.5313 20 20.8594 18.6719 20.8594 13.0696V6.93041C20.8594 1.32808 19.5182 0 13.929 0ZM17.0051 14.2671H15.5533C15.0033 14.2671 14.8339 13.8308 13.8446 12.8283C12.9852 11.9953 12.6046 11.8846 12.3928 11.8846C12.0934 11.8846 12.0084 11.969 12.0084 12.3796V13.6914C12.0084 14.0433 11.8978 14.2546 10.9666 14.2546C9.42661 14.2546 7.71791 13.3233 6.51982 11.5884C4.713 9.04597 4.21865 7.14165 4.21865 6.74791C4.21865 6.53605 4.30302 6.33793 4.70988 6.33793H6.16483C6.53295 6.33793 6.67294 6.5073 6.81606 6.90103C7.53542 8.97785 8.7335 10.7972 9.22786 10.7972C9.41036 10.7972 9.49473 10.7128 9.49473 10.2472V8.10225C9.43911 7.1129 8.9185 7.02791 8.9185 6.67667C8.9185 6.5073 9.05849 6.33793 9.28286 6.33793H11.5709C11.8803 6.33793 11.994 6.5073 11.994 6.87166V9.76532C11.994 10.0778 12.134 10.1884 12.2184 10.1884C12.4009 10.1884 12.5571 10.0778 12.8952 9.73907C13.9402 8.56723 14.6889 6.76041 14.6889 6.76041C14.7864 6.54855 14.9558 6.35043 15.3239 6.35043H16.7789C17.2151 6.35043 17.3126 6.5748 17.2151 6.88729C17.0326 7.73351 15.2521 10.2466 15.2521 10.2466C15.0989 10.5003 15.0402 10.6109 15.2521 10.894C15.4083 11.1059 15.9164 11.5453 16.2545 11.939C16.8764 12.6452 17.3545 13.2377 17.482 13.6477C17.6251 14.0546 17.4139 14.2664 17.0032 14.2664L17.0051 14.2671Z" fill="#6E569C"/>
</svg>
