<svg width="21" height="20" viewBox="0 0 21 20" id="ffff" fill="none" xmlns="http://www.w3.org/2000/svg">
<path d="M10.5 0C4.97581 0 0.5 4.47581 0.5 10C0.5 15.5242 4.97581 20 10.5 20C16.0242 20 20.5 15.5242 20.5 10C20.5 4.47581 16.0242 0 10.5 0ZM15.4113 6.85081L13.7702 14.5847C13.6492 15.1331 13.3226 15.2661 12.8669 15.0081L10.3669 13.1653L9.16129 14.3266C9.02823 14.4597 8.91532 14.5726 8.65726 14.5726L8.83468 12.0282L13.4677 7.84274C13.6694 7.66532 13.4234 7.56452 13.1573 7.74194L7.43145 11.3468L4.96371 10.5766C4.42742 10.4073 4.41532 10.0403 5.07661 9.78226L14.7177 6.06452C15.1653 5.90323 15.5565 6.17339 15.4113 6.85081Z" fill="white"/>
</svg>
